<?xml version="1.0" encoding="UTF-8"?> <svg xmlns="http://www.w3.org/2000/svg" width="708.656" height="49.125" viewBox="0 0 708.656 49.125"><defs><style> .cls-1 { fill: #fff; } .cls-1, .cls-2 { fill-rule: evenodd; } .cls-2 { fill: #ff010e; } </style></defs><path id="EMMANUEL_TV" data-name="EMMANUEL TV" class="cls-1" d="M237.747,853.111V845.97h-26.4V833.143H237.2V826H211.346v-12h26.4v-7.142H202.26v46.247h35.487Zm57.308,0V806.864H282.242L268.11,837.3l-14.055-30.439H241.242v46.247h9.085V818.79l15.841,34.321h3.883L285.97,818.79v34.321h9.085Zm59.016,0V806.864H341.258L327.126,837.3l-14.055-30.439H300.258v46.247h9.085V818.79l15.841,34.321h3.883l15.919-34.321v34.321h9.085Zm51.794,0L385.52,806.864H374.183l-20.345,46.247h10.328l3.805-8.875h23.761l3.8,8.875h10.328ZM389.17,837.1H370.533l9.319-22.049Zm61.423,16.016V806.864h-9.086v32.1l-26.479-32.1H405.71v46.247H414.8v-33l27.023,33h8.775Zm27.643,0.833c14.987,0,22.364-7.627,22.364-19.137V806.864h-9.163V834.6c0,7.349-4.581,12.134-13.2,12.134-8.7,0-13.278-4.785-13.278-12.134V806.864H455.8v28.012C455.8,846.247,463.172,853.944,478.236,853.944Zm63.054-.833V845.97h-26.4V833.143h25.858V826H514.889v-12h26.4v-7.142H505.8v46.247H541.29Zm35.41,0V845.97H553.87V806.864h-9.085v46.247H576.7Zm37.972,0V814.006h15.685v-7.142H589.9v7.142h15.685v39.105h9.086Zm43.8,0,20.344-46.247H668.485L652.8,844.306l-15.686-37.442H626.786l20.344,46.247h11.338Z" transform="translate(-202.25 -806.875)"></path><path id="Rounded_Rectangle_2_copy" data-name="Rounded Rectangle 2 copy" class="cls-2" d="M705.306,809h87.4a23.5,23.5,0,0,1,0,46.992h-87.4A23.5,23.5,0,0,1,705.306,809ZM715.6,842.431h4.342L725.4,823.1h-4.6l-3.336,13.971L713.845,823.1h-3.192L707,837.069,703.638,823.1h-4.572l5.492,19.333H708.9l3.336-13.275Zm23.892,0h4.457L736.558,823.1H731.44l-7.418,19.333h4.485l1.208-3.333h8.568ZM734,826.663l3.163,8.87h-6.355Zm14.317,15.768h4.112v-15.71h5.578V823.1h-15.3v3.623h5.606v15.71Zm20.758,0.348a8.893,8.893,0,0,0,8.166-4.753l-3.508-1.711a5.192,5.192,0,0,1-4.658,2.812c-3.335,0-5.865-2.7-5.865-6.348s2.53-6.348,5.865-6.348a5.246,5.246,0,0,1,4.658,2.812l3.508-1.74a8.84,8.84,0,0,0-8.166-4.724A10,10,0,1,0,769.074,842.779Zm23.749-.348h4.111V823.1h-4.111v7.594h-9.057V823.1h-4.083v19.333h4.083v-8.116h9.057v8.116Z" transform="translate(-202.25 -806.875)"></path><path id="live" class="cls-2" d="M829.755,853.111V806.864h-2.33v46.247h2.33Zm8.7-39.244a2.023,2.023,0,1,0,0-4.021A2.023,2.023,0,1,0,838.452,813.867Zm1.164,39.244V819.622h-2.329v33.489h2.329Zm20.5,0,16.073-33.489h-2.717L858.8,850.685l-14.754-31.063h-2.717L857.4,853.111h2.718Zm34.166,0.833a19.818,19.818,0,0,0,14.444-5.617l-1.4-1.317a18.1,18.1,0,0,1-13.046,5.061c-9.551,0-15.53-6.864-15.763-15.045H910.9v-0.694c0-9.291-5.9-17.542-17.394-17.542a17.347,17.347,0,0,0-17.627,17.542C875.88,846.525,883.412,853.944,894.283,853.944Zm14.133-18.79h-29.9c0.233-6.587,5.28-14.492,14.909-14.492A14.431,14.431,0,0,1,908.416,835.154Z" transform="translate(-202.25 -806.875)"></path></svg> 