<?xml version="1.0" encoding="UTF-8"?> <svg xmlns="http://www.w3.org/2000/svg" width="229.87" height="61.343" viewBox="0 0 229.87 61.343"><defs><style> .cls-1 { fill: #fff; fill-rule: evenodd; } </style></defs><path id="About" class="cls-1" d="M1163.1,533.684h13.03l-14.76-55.01h-11.71l-29.03,55.01h13.69l5.2-10.391h20.78Zm-18.8-20.123,9.24-19.382,4.45,19.382H1144.3Zm56.33-40h-11.87l-7.51,60.123h11.88l0.33-4.536a14.664,14.664,0,0,0,4.45,4.041,16.194,16.194,0,0,0,7.75,1.732c5.2,0,9.65-1.154,13.61-5.2,3.88-3.959,6.02-9.9,6.02-16.66,0-4.041-.91-9.4-5.28-13.443-3.05-2.8-6.68-3.959-11.13-3.959a15.674,15.674,0,0,0-7.18,1.567,14.214,14.214,0,0,0-4.53,3.794Zm4.04,32.33a8.008,8.008,0,0,1,5.86,2.227,8.452,8.452,0,0,1,2.55,6.185,11.219,11.219,0,0,1-3.13,7.67,9.978,9.978,0,0,1-6.76,2.722,9.008,9.008,0,0,1-6.02-2.31,8.343,8.343,0,0,1-2.39-6.35,10.687,10.687,0,0,1,3.05-7.588A9.4,9.4,0,0,1,1204.67,505.891Zm49.08-10.227c-6.77,0-12.87,2.309-16.91,6.268a20.053,20.053,0,0,0-5.94,14.515,18.558,18.558,0,0,0,5.03,12.949c4.7,4.866,10.64,5.525,15.34,5.525,5.36,0,11.71-.742,16.91-6.02a22.038,22.038,0,0,0,5.94-15.093,17.456,17.456,0,0,0-4.95-12.453C1265.54,497.726,1259.68,495.664,1253.75,495.664Zm-1.82,29.2a8.506,8.506,0,0,1-6.43-2.475,9.164,9.164,0,0,1-2.39-6.268,10.589,10.589,0,0,1,3.3-7.835,9.947,9.947,0,0,1,13.03-.247,8.671,8.671,0,0,1,2.47,6.35,11.033,11.033,0,0,1-3.05,7.835A10.017,10.017,0,0,1,1251.93,524.86Zm57.74-27.959-2.31,19.3c-0.5,4.371-1.9,6.1-2.4,6.6a8.259,8.259,0,0,1-10.3.5,5.258,5.258,0,0,1-1.57-4.042c0-.907.16-1.732,0.41-4.041l2.15-18.309h-11.88l-2.23,18.722a48.74,48.74,0,0,0-.41,5.195,13.653,13.653,0,0,0,3.96,9.9c4.12,3.959,10.64,4.206,14.35,4.206,4.2,0,10.06-.494,14.43-4.7,4.13-3.958,4.87-9.072,5.36-13.443l2.31-19.876h-11.87Zm39.67,9.567,1.15-9.567h-7.26l1.49-11.876h-11.88l-1.48,11.876h-4.29l-1.16,9.567h4.29l-3.38,27.216h11.88l3.38-27.216h7.26Z" transform="translate(-1120.63 -473.563)"></path></svg> 