<?xml version="1.0" encoding="UTF-8"?> <svg xmlns="http://www.w3.org/2000/svg" width="219.32" height="38.125" viewBox="0 0 219.32 38.125"><defs><style> .cls-1 { fill: #fff; fill-rule: evenodd; } </style></defs><path id="T.B._Joshua" data-name="T.B. Joshua" class="cls-1" d="M1183.74,567.737h12.78v-0.972c-3.84,0-4.45-.788-4.45-5.419v-19.59h4.54c4.26,0,4.77,1.111,5.37,3.473l0.24,0.926h0.97l-0.42-6.206h-25.29l-0.41,6.206h0.97l0.23-.926c0.6-2.362,1.11-3.473,5.37-3.473h4.54v19.59c0,4.631-.6,5.419-4.44,5.419v0.972Zm25.47,0.371a2.5,2.5,0,1,0-2.5-2.5A2.49,2.49,0,0,0,1209.21,568.108Zm20.05-2.085c-3.84,0-4.4-.741-4.4-5.372V553.8h5.42c4.03,0,5.93,2.779,5.93,6.16,0,3.334-1.9,6.066-5.93,6.066h-1.02Zm-4.4-13.94v-10.42h3.94c3.47,0,5.1,2.362,5.1,5.233s-1.63,5.187-5.1,5.187h-3.94Zm-8.29,15.654h13.76c6.44,0,9.96-3.473,9.96-7.78,0-3.335-2.37-6.206-5.93-7.318a6.79,6.79,0,0,0,3.61-5.743c0-3.844-3.06-6.947-8.94-6.947h-12.46v0.973c3.85,0,4.4.741,4.4,5.372v15.052c0,4.631-.55,5.419-4.4,5.419v0.972Zm31.54,0.371a2.5,2.5,0,1,0-2.5-2.5A2.5,2.5,0,0,0,1248.11,568.108Zm16.82,8.845c3.98,0,8.24-3.056,8.24-12.319v-18.34c0-4.631.56-5.372,4.4-5.372v-0.973h-12.69v0.973c3.84,0,4.4.741,4.4,5.372v17.923c0,8.244,0,10.7-1.81,10.7-1.9,0-1.57-2.548-3.56-2.548a2.131,2.131,0,0,0-2.23,2.177C1261.68,575.657,1262.93,576.953,1264.93,576.953Zm37-19.219A10.932,10.932,0,1,0,1291,568.478,10.855,10.855,0,0,0,1301.93,557.734Zm-4.03,0c0,5-2.27,9.031-6.9,9.031s-6.9-4.03-6.9-9.031c0-4.956,2.27-9.031,6.9-9.031S1297.9,552.778,1297.9,557.734Zm21.72,4.584c0-2.176-1.29-4.353-4.26-5.7l-2.73-1.25c-2.78-1.251-3.89-2.177-3.89-3.613s0.93-2.918,3.47-2.918a4.908,4.908,0,0,1,5.14,4.354h0.93v-5.789h-0.88a3.113,3.113,0,0,1-.65,1.482,6.949,6.949,0,0,0-5.05-1.714c-3.38,0-6.02,2.5-6.02,5.234,0,2.5,1.3,4.353,4.17,5.742l3.1,1.482c2.46,1.2,3.66,2.316,3.66,3.752,0,1.713-1.06,3.149-3.66,3.149a6.839,6.839,0,0,1-6.76-5.835h-0.92v7.363h0.83a5.651,5.651,0,0,1,.83-1.945,9.949,9.949,0,0,0,5.93,2.177C1316.98,568.293,1319.62,565.792,1319.62,562.318Zm28.25,5.419v-0.926c-3.1,0-3.75-.788-3.75-5.419V555.14c0-4.909-2.45-7.966-7.13-7.966a10.012,10.012,0,0,0-7.64,4.261v-12.6l-7.32,1.111v0.927c3.2,0,3.71.787,3.71,5.418v15.1c0,4.631-.61,5.419-3.48,5.419v0.926h10.79v-0.926c-3.05,0-3.7-.788-3.7-5.419v-5.65c0-3.612,3.52-6.3,6.34-6.3,2.97,0,4.82,1.759,4.82,5.742v6.206c0,4.631-.65,5.419-3.7,5.419v0.926h11.06Zm26.4-.648v-0.927c-3.19,0-3.7-.787-3.7-5.418V547.73h-7.32v0.926c3.06,0,3.71.788,3.71,5.419v5.65c0,3.612-3.48,6.3-6.35,6.3-2.92,0-4.82-1.759-4.82-5.742V547.73h-7.31v0.926c3.05,0,3.7.788,3.7,5.419v6.252c0,4.909,2.5,7.966,7.18,7.966a9.906,9.906,0,0,0,7.64-4.307,11.219,11.219,0,0,0,.93,4.168Zm22.1-.556-0.7-.926a2.33,2.33,0,0,1-1.48.787c-0.79,0-1.2-.741-1.2-2.084V554.028c0-4.029-1.72-6.854-7.18-6.854-3.62,0-7.51,2.038-7.51,4.354a1.708,1.708,0,0,0,1.76,1.759,1.683,1.683,0,0,0,1.67-1.759c0-1.76,1.95-2.733,3.8-2.733,2.96,0,3.84,1.9,3.84,5.187v1.343c-6.71,1.112-12.36,3.427-12.36,7.966,0,2.825,1.99,4.863,5.28,4.863,2.22,0,4.58-.88,7.18-3.2,0.27,1.853,1.06,3.1,3.24,3.1A5.024,5.024,0,0,0,1396.37,566.533Zm-7-3.1a8.7,8.7,0,0,1-5.65,2.5,2.751,2.751,0,0,1-2.96-3.057c0-2.825,3.01-4.955,8.61-6.113v6.669Z" transform="translate(-1177.06 -538.844)"></path></svg> 