<?xml version="1.0" encoding="UTF-8"?> <svg xmlns="http://www.w3.org/2000/svg" xmlns:xlink="http://www.w3.org/1999/xlink" version="1.1" id="Layer_1" x="0px" y="0px" viewBox="0 0 750 300" style="enable-background:new 0 0 750 300;" xml:space="preserve"> <style type="text/css"> .st0{fill:#FFFFFF;} .st1{fill:#1D2344;} </style> <g id="Name_Here_5_"> <g> <path class="st0" d="M92.6,162.6v17.3H72v55.6H51v-55.6H30.6v-17.3H92.6z"></path> <path class="st0" d="M160.7,181.1c0,7.3-4.6,13.5-11.9,15.6c8.7,1.9,14.1,9.2,14.1,18.3c0,12.5-10.8,20.4-27.7,20.4H99.1v-72.8 h34.5C150.3,162.6,160.7,169.9,160.7,181.1z M139.2,184.9c0-3.7-2.7-6-6.7-6h-12.7v12.3h12.7C136.7,191.3,139.2,188.8,139.2,184.9 z M141.3,212.4c0-4-3.3-6.5-8.7-6.2h-12.7v13.1h12.7C138,219.4,141.3,216.7,141.3,212.4z"></path> <path class="st0" d="M221,236.5c-10.8,0-19.4-4.4-26-12.1l9.6-14.1c5.4,5.6,11,8.1,14.8,8.1s6.2-2.5,6.2-7.3v-31h-23.9v-17.3h44.9 v48.7C246.6,227.3,236.8,236.5,221,236.5z"></path> <path class="st0" d="M330,199c0,21.4-16.2,37.5-38.5,37.5s-38.5-15.8-38.5-37.5c0-21.4,16.2-37,38.5-37S330,177.8,330,199z M274.7,199c0,11,8.1,19.1,17.3,19.1c9.2,0,16.6-8.1,16.6-19.1s-7.5-18.9-16.6-18.9C282.6,180.1,274.7,188.2,274.7,199z"></path> <path class="st0" d="M365.2,178.6c-3.5,0-5.8,1.2-5.8,4c0,10.6,36.8,4.4,36.8,30.6c0,15.4-13.3,22.9-29.1,22.9 c-11.9,0-25-4.4-33.9-11.4l7.9-16.4c7.3,6.2,18.9,11,26.2,11c4.4,0,7.3-1.5,7.3-4.8c0-11-36.8-4-36.8-29.8 c0-13.9,11.7-22.9,29.1-22.9c10.8,0,21.8,3.3,29.5,8.3l-7.7,16.6C381.4,182.6,371.3,178.6,365.2,178.6z"></path> <path class="st0" d="M424.7,162.6v28.9h25v-28.9h20.8v72.8h-20.8v-27.1h-25v27.1h-20.8v-72.8H424.7z"></path> <path class="st0" d="M514.8,218.4c6.9,0,11.9-5,11.9-13.5v-42h20.8v41.8c0,19.4-12.7,31.6-32.9,31.6c-20.2,0-33.3-12.3-33.3-31.6 v-42h20.8v42C502.3,213.2,508,218.4,514.8,218.4z"></path> <path class="st0" d="M603.9,223.8h-28.5l-4.2,11.7h-21.4l30-72.8h21.4l29.1,72.8h-22.3L603.9,223.8z M598.3,208l-8.5-23.7L581,208 H598.3z"></path> </g> <g id="Name_Here_6_"> <g> <path class="st0" d="M66.2,120.4c0,9.4-5.6,14.6-15.6,14.6h-8.5v11.9h-7.5v-40.4h16.2C60.6,106.4,66.2,111.4,66.2,120.4z M59.1,120.6c0-5-3.1-7.5-8.7-7.5h-8.1v15h8.1C56,128.3,59.1,125.8,59.1,120.6z"></path> <path class="st0" d="M108.2,147l-6.9-12.1c-0.4,0-0.8,0-1.5,0H91v11.9h-7.5v-40.4h16.6c10.2,0,16,5,16,13.9 c0,6.5-2.7,11-7.9,13.1L117,147H108.2z M91.2,128.3h8.9c5.6,0,8.7-2.5,8.7-7.5c0-5-3.1-7.5-8.7-7.5h-8.9V128.3z"></path> <path class="st0" d="M174.4,126.8c0,11.7-9.2,20.6-21,20.6c-11.9,0-21-8.9-21-20.6s9.2-20.6,21-20.6 C165.2,106.2,174.4,115.2,174.4,126.8z M140.3,126.8c0,7.7,6,13.7,13.3,13.7s13.1-6,13.1-13.7s-6-13.5-13.1-13.5 C146.3,113.1,140.3,119.1,140.3,126.8z"></path> <path class="st0" d="M223.9,120.4c0,9.4-5.6,14.6-15.6,14.6h-8.5v11.9h-7.5v-40.4h16.2C218.3,106.4,223.9,111.4,223.9,120.4z M216.9,120.6c0-5-3.1-7.5-8.7-7.5H200v15h8.1C213.7,128.3,216.9,125.8,216.9,120.6z"></path> <path class="st0" d="M248.9,106.4v17.3h19.6v-17.3h7.5V147h-7.3v-16.4h-19.6V147h-7.5v-40.6H248.9z"></path> <path class="st0" d="M325.9,106.4v6.9h-21.2v10h19.1v6.9h-19.1v10.2h22.1v6.9h-29.5v-40.8H325.9z"></path> <path class="st0" d="M373.1,106.4v6.9h-12.3V147h-7.5v-33.7h-12.3v-6.9C341.1,106.4,373.1,106.4,373.1,106.4z"></path> </g> </g> </g> <polygon class="st0" points="738.5,286.6 174.6,285.4 174.6,247.3 738.5,248.6 "></polygon> <g> <path class="st1" d="M190.6,276.7c-2.5,0-4.6-1-6.2-3.1l1.9-2.9c1.5,1.5,2.9,2.3,4.4,2.3c1.7,0,2.7-1,2.7-2.9v-10.4h-7.1v-3.5h10.8 V270C197.1,274.2,194.6,276.7,190.6,276.7z"></path> <path class="st1" d="M210.8,273.1c3.1,0,5-1.9,5-5.2v-11.9h4v11.9c0,5.4-3.3,8.7-8.9,8.7c-5.6,0-8.9-3.3-8.9-8.7v-11.9h4v11.9 C205.6,271.2,207.7,273.1,210.8,273.1z"></path> <path class="st1" d="M228.5,256.1l10.4,13.9v-13.9h3.7v20.4h-3.7l-10.4-13.9v13.9H225v-20.4H228.5z"></path> <path class="st1" d="M263.3,256.1v3.3h-11v5h9.8v3.3h-9.8v5.2h11.2v3.3h-15.2v-20.4h15V256.1z"></path> <path class="st1" d="M283,256.1v20.4h-4v-16.9h-4v-3.3h7.9V256.1z"></path> <path class="st1" d="M298,261.7c0-1.5-1-2.3-3.1-2.3c-1.7,0-3.5,1-5.6,2.5l-1.5-2.9c2.3-1.9,5-2.9,7.9-2.9c3.7,0,6.5,2.1,6.5,5.2 c0,2.3-1.7,4.4-3.7,6.7l-5,5.2h9.6v3.3h-14.6v-2.7l7.5-7.9C297,264.4,298,262.9,298,261.7z"></path> <path class="st1" d="M309.9,274.6c0,0.6-0.2,1.2-0.6,1.7l-1.9,2.7h-1.9l1-2.7c-0.6-0.4-0.8-1-0.8-1.7c0-1.2,0.8-2.1,1.9-2.1 C308.8,272.5,309.9,273.3,309.9,274.6z"></path> <path class="st1" d="M329,256.1v20.4h-4v-16.9h-4v-3.3h7.9V256.1z"></path> <path class="st1" d="M340.5,273.3c3.7,0,5.4-2.7,5.4-6.7c-1,1.7-2.9,2.7-5.4,2.7c-4,0-6.5-2.5-6.5-6.5c0-4.2,2.9-6.9,7.3-6.9 c5.2,0,8.3,3.7,8.3,10c0,6.5-3.5,10.6-8.9,10.6c-2.1,0-4.6-0.6-6.2-1.7l1.5-2.9C337.3,272.9,339,273.3,340.5,273.3z M345.4,262.7 c0-1.7-1.2-3.5-4-3.5c-2.3,0-3.7,1.2-3.7,3.5c0,2.1,1.5,3.3,3.7,3.3C344,266.3,345.4,264.8,345.4,262.7z"></path> <path class="st1" d="M362.1,259.2c-3.7,0-5.4,2.7-5.4,6.7c1-1.7,2.9-2.7,5.4-2.7c4,0,6.5,2.5,6.5,6.5c0,4.2-2.9,6.9-7.3,6.9 c-5.2,0-8.3-3.7-8.3-10c0-6.5,3.5-10.6,8.9-10.6c2.1,0,4.6,0.6,6.2,1.7l-1.5,2.9C365.2,259.6,363.8,259.2,362.1,259.2z M357.3,269.8c0,1.7,1.2,3.5,4,3.5c2.3,0,3.7-1.2,3.7-3.5c0-2.1-1.5-3.3-3.7-3.3C358.8,266.3,357.3,267.9,357.3,269.8z"></path> <path class="st1" d="M384.8,270.2c0,3.7-2.9,6.5-7.5,6.5c-2.7,0-5.2-0.8-7.1-2.3l1.7-3.1c1.5,1.5,3.3,2.3,5.2,2.3 c2.5,0,4-1.2,4-3.1c0-2.1-1.5-3.1-4-3.1h-2.9V265l5-5.4h-7.9v-3.3h12.7v2.5l-5.6,6l1,0.2C382.5,265,384.8,266.9,384.8,270.2z"></path> <path class="st1" d="M404.8,266.3v2.7h-7.3v-2.7H404.8z"></path> <path class="st1" d="M422.6,276.7c-2.5,0-4.6-1-6.2-3.1l1.9-2.9c1.5,1.5,2.9,2.3,4.4,2.3c1.7,0,2.7-1,2.7-2.9v-10.4h-7.1v-3.5h10.8 V270C429.1,274.2,426.6,276.7,422.6,276.7z"></path> <path class="st1" d="M442.8,273.1c3.1,0,5-1.9,5-5.2v-11.9h4v11.9c0,5.4-3.3,8.7-8.9,8.7c-5.6,0-8.9-3.3-8.9-8.7v-11.9h4v11.9 C437.6,271.2,439.7,273.1,442.8,273.1z"></path> <path class="st1" d="M460.5,256.1l10.4,13.9v-13.9h3.7v20.4h-3.7l-10.4-13.9v13.9h-3.7v-20.4H460.5z"></path> <path class="st1" d="M495.3,256.1v3.3h-11v5h9.8v3.3h-9.8v5.2h11.2v3.3h-15.2v-20.4h15V256.1z"></path> <path class="st1" d="M525.7,266.3c0,6.7-3.1,10.2-8.7,10.2c-5.6,0-8.7-3.7-8.7-10.2c0-6.7,3.1-10.2,8.7-10.2 C522.5,256.1,525.7,259.6,525.7,266.3z M512.1,266.3c0,5,1.5,7.3,4.8,7.3c3.3,0,4.8-2.3,4.8-7.3c0-5-1.7-7.1-4.8-7.1 C513.8,259.2,512.1,261.3,512.1,266.3z"></path> <path class="st1" d="M535.8,263.5c4.4,0,7.3,2.5,7.3,6.2c0,4.2-2.9,6.9-7.7,6.9c-2.5,0-5.4-1-7.5-2.5l1.7-3.1 c1.7,1.5,3.5,2.3,5.4,2.3c2.5,0,4-1.2,4-3.3c0-1.9-1.5-3.1-4-3.1c-1.2,0-4.2,0-5.4,0.2v-11h12.7v3.3h-8.9v4L535.8,263.5z"></path> <path class="st1" d="M550.2,274.6c0,0.6-0.2,1.2-0.6,1.7l-1.9,2.7h-1.9l1-2.7c-0.6-0.4-0.8-1-0.8-1.7c0-1.2,0.8-2.1,1.9-2.1 C549.4,272.5,550.2,273.3,550.2,274.6z"></path> <path class="st1" d="M572.3,261.7c0-1.5-1-2.3-3.1-2.3c-1.7,0-3.5,1-5.6,2.5l-1.5-2.9c2.3-1.9,5-2.9,7.9-2.9c3.7,0,6.5,2.1,6.5,5.2 c0,2.3-1.7,4.4-3.7,6.7l-5,5.2h9.6v3.3h-14.6v-2.7l7.5-7.9C571.4,264.4,572.3,262.9,572.3,261.7z"></path> <path class="st1" d="M597.9,266.3c0,6.7-3.1,10.2-8.7,10.2s-8.7-3.7-8.7-10.2c0-6.7,3.1-10.2,8.7-10.2S597.9,259.6,597.9,266.3z M584.3,266.3c0,5,1.5,7.3,4.8,7.3s4.8-2.3,4.8-7.3c0-5-1.7-7.1-4.8-7.1S584.3,261.3,584.3,266.3z"></path> <path class="st1" d="M610.8,261.7c0-1.5-1-2.3-3.1-2.3c-1.7,0-3.5,1-5.6,2.5l-1.5-2.9c2.3-1.9,5-2.9,7.9-2.9c3.7,0,6.5,2.1,6.5,5.2 c0,2.3-1.7,4.4-3.7,6.7l-5,5.2h9.6v3.3h-14.6v-2.7l7.5-7.9C609.7,264.4,610.8,262.9,610.8,261.7z"></path> <path class="st1" d="M625.5,256.1v20.4h-4v-16.9h-4v-3.3h7.9V256.1z"></path> </g> <g id="Together_With_Their_Families_2_"> <g> <g> <g> <path class="st0" d="M19.4,89.4c0,0-0.2-0.2-0.2-0.4v0.9c-0.2,0-0.2,0-0.2,0c0,0.2,0.2,0.7,0.2,0.7c-0.2,0-0.7-0.4-0.7-0.7 c0,0.2,0,0.2,0,0.4s-0.2,0.2-0.4,0.4c0,0,0,0-0.2,0c0,0,0.2,0,0.2,0.2c0,0.2,0,0.2-0.2,0.2c0,0-0.2,0-0.4,0c0,0,0,0-0.2,0 c-0.4,0-1.6-0.2-1.6-0.2s-0.2-0.2-0.4-0.2h-0.2c-0.4-0.4-0.9-1.6-0.9-2.9c0-4,1.8-10.3,2.2-12.8c1.1-4.7,2.2-8.8,3.4-13 c2-7.4,5.6-16.6,6.1-22c0-0.7,0.2-0.9,0.7-1.1h0.2c0.4,0,2.2,0.9,2.7,1.1c1.1,0.4,1.8,1.6,1.8,2.9c0,0.2,0,0.4,0,0.9 c-0.4,5.6-2.9,12.6-4.3,17.5c-2.9,9.4-4,13.9-5.6,22c-0.2,1.1-0.4,1.8-0.7,2.9c0,0,0,0.2-0.2,0.2v0.9c0-0.2-0.2-0.4-0.2-0.9 c0,0,0,0.2,0,0.4v0.4l-0.2-0.4v-0.2c0-0.2-0.2-0.4-0.2-0.7v0.2v2c-0.2,0-0.2-0.2-0.2-0.2s0,0,0,0.2s0,0.7,0,0.9 C19.4,89.2,19.4,89.4,19.4,89.4z M19.2,80.8c-0.2,0-0.2-0.2-0.2-0.2c-0.7,0-0.4,0.9-0.7,0.9h0.4c0,0,0,0,0-0.4 C19,80.8,19.2,80.8,19.2,80.8z"></path> <path class="st0" d="M60.5,66.2c0,0,0,0.7-0.2,1.3v-0.2l0.2,0.7l0.7-0.9l-0.9,1.8c0.2-0.2,0.7-0.4,1.1-0.9v0.7l-2.2,3.8L58,74.1 c0,0.2-0.4,0.4-0.4,0.4s0.2-0.4,0.2-0.7c0,0-0.4,0.7-0.4,0.9c0,0.2,0.2,0,0.2,0.2c0,0.2,0,0.2-0.2,0.4c-0.2,0.4-0.7,0.7-0.7,0.7 c0,0.2,0,0.2,0,0.2c0,0.2-0.4,0.7-0.4,0.7l0,0l0.7-0.7c-1.6,2.5-3.4,4.9-5.2,7.2c-2.2,2.9-4,4-5.4,4.3c-0.9,0-2-0.2-2.7-0.4 c-2-1.1-2.2-2.5-2.2-3.8v-1.3c0-0.2,0-0.4,0-0.4v-0.4c0-0.4,0-0.9,0.2-1.3c0-0.2,0.7-3.1,0.9-3.8c0.9-3.1,2.9-8.8,3.1-10.6v-1.3 c0-0.2,0-0.2,0-0.2c-1.3,0.4-5.4,5.6-9.4,13.2c-0.9,1.6-0.9,2.9-2,4.7c0,0.2-0.2,0.4-0.2,0.7c-0.4,0.9-1.1,1.1-2,1.1 c-0.9-0.2-2.9-2.2-3.1-2c-0.2,0-0.4,0-0.4-0.2S28,81.3,28,81.1c0-0.2,0-0.2,0.2-0.4c2-7.9,4.3-16.8,5.2-20.7 c0-0.2,0.2-0.7,0.7-0.7s2.5,0.9,2.7,1.1c0.4,0.2,1.1,1.1,1.3,1.6c0,0.4,0,0.7,0.2,1.3v0.4c0,1.1-0.2,2.7-0.9,4.7 c1.8-3.1,4.5-6.5,6.7-7.4c0.7-0.4,1.1-0.7,2-0.7c2,0.9,4.5,1.6,4.9,3.8c0.2,0.7,0.2,1.6,0.2,2.5c0,2-1.3,6.5-1.8,8.1 c-0.9,3.1-2.7,7.6-2.7,10.3c0,0.4,0,0.4,0,0.4C47.9,85.1,59.2,68,60.5,66.2z M30.2,76.4c0-0.2,0-0.2,0-0.4H30 C30,75.9,30.2,76.1,30.2,76.4z M31.8,73.7c0-0.2-0.2-0.2-0.2-0.2c0,0.2,0,0.2-0.2,0.4C31.5,73.9,31.8,73.7,31.8,73.7z M45.5,83.5l0.2,0.4c0,0.2-0.2,0.4-0.2,0.9l0.2-0.2v-0.2c0-0.2,0-0.4,0-0.9c0-0.2,0-0.2,0-0.2s0-0.2,0-0.4s0-0.4,0.2-0.9v-0.4 c0,0-0.2,0-0.2,0.2s0,0.4,0,0.4l-0.2,0.2c0-0.2,0.2-0.9,0.2-0.9s0-0.2,0-0.4c0,0,0.2,0,0.2-0.2c0.2,0,0.2-0.2,0.2-0.4l0.2-0.2 l0.2-0.2c0-0.2-0.2-0.2-0.2-0.2l-0.2-0.4v0.4h-0.2v0.2l-0.2,0.2h0.2c0,0.2-0.2,0.2-0.2,0.4c0,0.2,0,0.2-0.2,0.2v0.2 c0,0.2-0.2,0.2-0.2,0.2c0,0.2,0,0.7,0,1.1l0.2,0.2C45.5,82.6,45.5,83.3,45.5,83.5z M46.4,81.3L46.4,81.3l0.2-0.4 C46.4,81.1,46.4,81.1,46.4,81.3z M46.8,77.9l-0.2-0.2C46.6,77.7,46.6,77.9,46.8,77.9c0.2,0.2,0.2,0,0.2,0c0-0.2,0-0.7,0-0.7 s-0.2,0-0.2,0.2C46.8,77.5,46.8,77.7,46.8,77.9z M47.3,72.8c0,0.2-0.2,0.4-0.2,0.7c0-0.4,0.4-1.1,0.7-1.1 C47.5,72.5,47.5,72.8,47.3,72.8z M48.6,71.6c0,0.2-0.2,0.9-0.4,0.9l0.4-0.4C48.6,72.1,48.8,72.1,48.6,71.6l0.2-0.2 C48.8,71.2,48.6,71.6,48.6,71.6z M52.2,82c0,0-0.2,0.2-0.2,0.4l-0.7,0.7c0.2,0,0.4-0.4,0.7-0.4c0-0.2,0.2-0.4,0.4-0.7 C52.7,81.7,52.4,81.7,52.2,82z M54,79.5c0,0,0,0,0-0.2s-0.2,0.2-0.2,0.2H54c-0.2,0.4-0.2,0.4-0.2,0.4c0.2,0,0.7-0.9,0.7-1.1 C54.2,79,54.2,79.3,54,79.5z M55.4,77.9c0,0,0.2-0.4,0.4-0.7c-0.7,0.7-1.1,0.7-1.1,1.3C54.9,78.6,54.9,78.6,55.4,77.9z M58.9,72.3l-0.2,0.4l0.4-0.2l0.2-0.7C59.2,72.1,58.9,72.3,58.9,72.3z"></path> <path class="st0" d="M98.7,91.6c0,0.4-1.6,0.2-2,0.7l-0.2-0.2c-0.4,0-1.1,0.2-1.3,0.4c0.2,0,0.4,0,0.9-0.2 c0,0.4-3.6,1.3-3.6,1.3c-1.3,0.4-7,1.3-9.2,1.3c0,0.2,2,0.2,2,0.2c0.2,0,0.2,0,0.4,0c1.1,0,1.8-0.2,2.7-0.2 c1.1-0.2,1.1-0.2,1.1-0.2c0.2,0,0.2,0.2,0.4,0.2c0.2,0,0.2-0.2,0.4-0.2s0.7-0.2,0.9-0.2l3.4-0.9c0,0.2-3.1,1.1-5.4,1.3 c-2.5,0.4-3.8,0.7-5.8,0.7h-0.2c-6.5-0.2-9.9-3.6-9.9-5.4c0.2-2.2,1.6-3.8,2-5.2c6.3-15.3,11.2-27.8,15.5-44.2 c0.2-1.1,0.4-1.8,0.4-2.7c0-1.1,0.9-1.3,2-1.3c0.7,0,3.1,1.1,3.1,1.8v0.2c0,0.4,0.7,1.3,0.7,2v1.6C94.9,56.8,85.9,79,80.7,90.5 c0.7,0,1.1,0.4,1.6,0.4c1.1,0,7-1.3,11.2-1.8c2.9-0.4,5.2-0.9,7-0.9h0.4c0.7,0,1.3,0.2,2.5,0.2c0.2,0,0.7-0.2,0.7-0.2 c0.7,0,1.1,0.2,1.3,0.9l-0.2,0.2c0.2,0.2,0.7,0.4,0.9,0.4c-0.2,0.2-0.4,0.4-0.4,0.4c-0.2,0.2-0.9,0.4-0.9,0.4h-0.2 c-0.7,0-0.4,0.2-1.6,0.2c-0.2,0-0.7,0-1.1,0c-0.4,0-1.3,0.2-1.6,0.7c0,0-0.4,0.2-0.7,0.2c-0.2,0-1.1,0-1.3,0.2h0.7h-0.2V91.6z M74.2,88.3c0,0,0,0.2,0,0.4c0,0,0.2-0.2,0.4-0.4c0.2-0.2,0.4-0.9,0.4-1.1v-0.2c0,0-0.2,0-0.2,0.2L74.2,88.3z M79.2,81.3 C79.2,81.3,78.9,81.5,79.2,81.3L78.9,82c0.2,0,0.4-0.2,0.4-0.2C79.4,81.7,79.4,81.3,79.2,81.3z M80.3,82.6 c-0.2,0.4-0.2,0.9-0.2,1.1L79.8,84c0.2,0,0.4,0,0.4,0.2l0.2-0.4c0,0,0-0.2,0.2-0.4C80.3,82.9,80.3,82.9,80.3,82.6z M83,74.8 c-0.2,0.4-0.4,0.9-0.7,1.3v0.2c0.4-0.2,0.4-0.9,0.7-1.3C83,74.8,83,74.8,83,74.8z M83.6,78.4c-0.2,1.1-0.7,2.2-1.1,3.1 c0,0,0,0.2,0,0.4c0.4-0.2,0.7-1.1,0.7-1.3C83.2,80.4,83.6,78.4,83.6,78.4z M83.9,71.4c0,0,0.4-0.7,0.4-0.9l-1.1,1.6l0.2,0.2 c0.2-0.2,0.4-0.2,0.4-0.4C83.9,71.9,83.9,71.4,83.9,71.4z M84.8,73v0.4l0.2-0.2c0-0.2,0-0.2,0.2-0.2l0.2-0.4c0-0.2,0,0-0.2-0.2 C84.8,72.8,84.8,73,84.8,73z"></path> <path class="st0" d="M116.7,65.6c0,0.4,0.2,1.3,0.2,1.8c0,5.4-4.5,14.8-10.1,16.8c-0.7,0.4-0.9,0.4-1.1,0.4h-0.9 c-0.9,0-2-0.2-2.9-0.7c-1.8-0.2-2.2-2.2-2.2-4.5c0-2.5,0.4-4.9,0.7-5.8c0-0.2,0-0.2,0-0.4l0.4-1.1c2.5-7.4,6.7-13.7,11.5-14.1 h0.9c0.2,0,1.3,0.2,1.6,0.4c0.2,0,0.7,0.2,0.7,0.2c0,0.2,0,0.4-0.4,0.7c-0.7,0.2-1.3,0.9-2,1.6c0.9,0.4,1.8,1.1,2.5,2 c4,0,8.8-0.9,11.5-1.3c0.2,0-1.3,2.5-1.6,2.5c-1.1,0.4-2.2,0.7-3.8,0.9c-0.2,0-0.2,0-0.4,0C119.6,65.1,118.2,65.6,116.7,65.6z M112.6,65.8h-0.7c-0.7,0-1.1-0.2-1.8-0.4L109,68c-1.8,4.5-3.6,9-4,13c0,0,0.2,0,0.4,0s0.2-0.2,0.2-0.2 c2.9-2.7,6.5-9.4,6.7-14.6v-0.4H112.6z M112.6,76.4c-0.2,0-0.2,0.2-0.2,0.2s0.2,0,0.2,0.2C112.4,76.8,112.6,76.6,112.6,76.4z M114,74.6l-0.2,0.4c0,0.2-0.4,0.9-0.7,1.1l0.4-0.2C113.5,75.7,114,75.5,114,74.6c0.2,0,0.2-0.2,0.2-0.2 C114,74.3,114,74.3,114,74.6z M113.5,74.1c0,0,0,0.2,0.2,0.2c-0.2,0.4-0.4,0.7-0.4,1.1c0,0,0.2,0,0.2-0.2 c0.2-0.2,0.2-0.4,0.4-0.4v-0.9L113.5,74.1z M115.3,71.4C115.3,71.4,115.1,71.4,115.3,71.4c0-0.4,0-0.7,0.2-0.9 c-0.4,0.2-0.7,1.1-0.7,1.6c-0.2,0.2-0.4,1.1-0.4,1.1l0.4-0.2c0,0,0-0.2,0-0.4c0,0,0-0.2,0-0.4C115.3,72.1,115.1,71.6,115.3,71.4 z M115.3,69.2c0,0.2,0,0.4,0,1.1c0.2-0.2,0.2-0.4,0.2-0.7L115.3,69.2z M115.3,70.7V71c0.2,0,0.2-0.2,0.2-0.2H115.3z M116,68v0.9 c0.2-0.2,0.2-0.4,0.2-0.9c0-0.2,0-0.2,0-0.4L116,68z"></path> <path class="st0" d="M135.1,70.5c-1.8,4.7-3.6,9-6.3,13.5c-0.2,0.2-0.2,0.4-0.7,0.9c0,0.2-0.2,0.2-0.2,0.4 c-0.2,0.2-0.4,0.7-0.9,0.9c-0.4,0.4-1.6,0.4-2,0.4c-0.7,0-2.7-1.3-3.1-1.3c-2,0-2.2-3.1-2.2-4.5c0.2-6.1,2.2-11.2,3.8-17.5 c0-1.1,0.2-1.1,0.4-2.2l0.4-2.2c0-0.4,0-1.6,0.7-1.6c0.7,0,3.4,0,3.4,0.9c0,0,0.9,0.2,1.1,0.7c0.2,0.2,0.2,0.9,0.2,1.6 c0,1.1,0,2.2-0.2,3.1c-0.9,6.7-4.3,15.9-4.5,19.3c0,0.2,0.2,0,0.2,0.2c1.1-0.7,7.6-15.9,8.1-18.2c-0.2-0.4-0.2-1.1-0.2-1.6 c0-1.3,0.4-2.9,2-2.9c0.4,0,1.3,0.9,1.8,0.9c0.2,0,0.4,1.3,0.4,1.6c0,0.2-0.2,2-0.4,2.2c1.8,1.6,4.3,2.5,5.8,2.7 c0.2,0,0.2,0,0.4,0.2c0,0-0.7,1.6-0.9,2c0,0.2-0.2,0.4-0.9,0.4c-2,0-4-1.1-5.6-2.5c0,0.2-0.4,1.3-0.7,1.1 c-0.2,0.2-0.2,0.4-0.2,0.4c0.2,0,0.2,0,0.2-0.2L135.1,70.5l-0.2-0.2c0.2-0.2,0.7-1.6,0.7-2V68l-1.1,2.9c-0.2,0-0.2,0-0.2,0.2 s-0.4,1.8-0.7,1.8l-0.2,0.2c0-0.4,0-0.4,0-0.4s-0.2,0-0.2,0.2c-0.2,0-0.2,0.2-0.2,0.2s0,0.2,0.2,0.2c0,0.2,0,0.4-0.2,0.4 c0,0,0,0.2,0.2,0.2l-0.4,1.8c0,0,0.4-1.1,0.7-1.6l0.9-2.2l0.2-0.2c0,0,0-0.2,0-0.4l0.4-1.1h0.2V70.5z M119.8,79.5v0.2 c0,0.2,0,0.4,0.2,0.4l0.7,0.4c0-0.4-0.4-0.7-0.4-1.1C120.3,79.5,119.8,79.5,119.8,79.5z M132.4,73.9l-0.4,0.4 c-0.2,0-0.2,0.4-0.4,0.7c0,0,0,0,0,0.2C131.9,75,132.2,74.1,132.4,73.9z"></path> <path class="st0" d="M156.9,70.7c0.4-0.9,1.3-1.8,1.3-1.8s0.2-0.4,0.2-0.2s-0.2,0.7-0.2,0.7l-6.3,9c-1.3,2-5.8,7.4-8.8,7.4 c0,0-1.3,0-1.6-0.4c-0.4,0-0.9-0.4-1.3-0.7c-2-0.9-2.2-3.8-2.2-6.1c0-6.1,3.6-11.5,5.6-16.8c0.2-0.4,0.4-0.9,1.1-0.9 c0.2,0,0.4,0.2,0.7,0.2c2,0.7,2.9,1.1,2.9,3.4v0c0,1.6-1.6,5.2-2.5,7.4l-0.2,0.4c-0.9,2.7-1.6,5.2-2,7.4v0.7 c0,0.4,0,1.8,0.2,1.8s0.4,0,0.7-0.2c2.9-1.8,10.8-13.5,13.5-17.1c0,0-0.2,0.9-0.4,1.3l0.2-0.2v0.4l-0.7,1.6 c0.4-0.4,0.7-0.9,0.9-1.1l-0.2,1.3L158,68L156.9,70.7z M140.7,72.3c0-0.2-0.2-0.2-0.2-0.2s-0.2,0.2-0.2,0.4c0.2,0,0.2,0,0.2,0 v0.2C140.5,72.8,140.7,72.5,140.7,72.3z M140.9,73c-0.2,0-0.4,0.2-0.4,0.4l0.2,0.2c0,0,0.4-0.4,0.4-0.7 C140.9,73,140.9,73,140.9,73z M142.5,76.8v-0.4v-0.2c-0.2,0-0.2,0.2-0.2,0.4l-0.2,0.2c0,0,0,0,0.2,0 C142.5,77,142.5,76.8,142.5,76.8z M142.5,78.6c0,0,0,0.4,0,0.9c0.2-0.2,0.2-0.2,0.2-0.4c0-1.1,0-1.3,0-1.6l-0.2,0.2V78.6z M142.9,77.9c0.2-0.2,0.4-0.9,0.4-0.9c-0.2,0-0.2-0.4-0.2-0.2C143.2,76.8,143.2,77.7,142.9,77.9z M143.6,75 c-0.2,0-0.2,0-0.2,0.2l-0.2,0.2C143.4,75.5,143.6,75.2,143.6,75z M143.4,76.1c0.2,0,0.2-0.2,0.2-0.4c-0.2,0-0.2,0-0.2,0.2 C143.4,75.7,143.4,75.9,143.4,76.1z M146.5,83.8c-0.2,0.2-0.2,0-0.4,0.2c-0.2,0-0.9,0.4-0.9,0.7c0,0,0.7-0.4,0.9-0.4 C146.1,84,146.5,83.8,146.5,83.8z M151.7,56.4c-0.4,1.1-0.7,1.3-1.3,1.8c-0.4,0.4-1.3,0.7-2,0.7c-0.2,0-0.4,0-0.7,0 c-0.7-0.2-1.1-0.4-1.3-0.9c-0.4-0.7-0.4-1.1-0.4-1.6c0-2.2,2.9-1.8,3.1-2C149.9,54.3,151.7,55.5,151.7,56.4z M148.5,80.8 l-0.4,0.2c-0.2,0-0.2,0.2-0.2,0.4c0.4-0.4,1.1-1.1,1.1-1.3v-0.2l-0.2,0.2C148.5,80.4,148.5,80.8,148.5,80.8z M149.4,78.8 l-0.2,0.2c0,0.2-0.2,0.2-0.2,0.4c0,0,0.2,0,0.2-0.2C149.4,79,149.4,79,149.4,78.8z M150.1,79.3l0.4-0.7l-0.2,0.2L150.1,79.3z M150.6,77.9v0.4c0,0,0.2-0.9,0.4-0.9C151,77.7,150.6,77.7,150.6,77.9z"></path> <path class="st0" d="M184.9,66.2c0,0,0,0.7-0.2,1.3v-0.2l0.2,0.7l0.7-0.9l-1.1,1.8c0.2-0.2,0.7-0.4,1.1-0.9v0.7l-2.2,3.8 l-1.1,1.6c0,0.2-0.4,0.4-0.4,0.4s0.2-0.4,0.2-0.7c0,0-0.4,0.7-0.4,0.9s0.2,0,0.2,0.2s0,0.2-0.2,0.4c-0.2,0.4-0.7,0.7-0.7,0.7 c0,0.2,0,0.2,0,0.2c0,0.2-0.4,0.7-0.4,0.7l0,0l0.7-0.7c-1.6,2.5-3.4,4.9-5.2,7.2c-2.2,2.9-4,4-5.4,4.3c-0.9,0-2-0.2-2.7-0.4 c-2-1.1-2.2-2.5-2.2-3.8v-1.3c0-0.2,0-0.4,0-0.4v-0.4c0-0.4,0-0.9,0.2-1.3c0-0.2,0.7-3.1,0.9-3.8c0.9-3.1,2.9-8.8,3.1-10.6v-1.3 c0-0.2,0-0.2,0-0.2c-1.3,0.4-5.4,5.6-9.4,13.2c-0.9,1.6-0.9,2.9-2,4.7c0,0.2-0.2,0.4-0.2,0.7c-0.4,0.9-1.1,1.1-2,1.1 c-0.9-0.2-2.9-2.2-3.1-2c-0.2,0-0.4,0-0.4-0.2s-0.4-0.2-0.4-0.4s0-0.2,0.2-0.4c2-7.9,4.3-16.8,5.2-20.7c0-0.2,0.2-0.7,0.7-0.7 c0.4,0,2.5,0.9,2.7,1.1c0.4,0.2,1.1,1.1,1.3,1.6c0,0.4,0,0.7,0.2,1.3v0.4c0,1.1-0.2,2.7-0.9,4.7c1.8-3.1,4.5-6.5,6.7-7.4 c0.7-0.4,1.1-0.7,2-0.7c2,0.9,4.5,1.6,4.9,3.8c0.2,0.7,0.2,1.6,0.2,2.5c0,2-1.3,6.5-1.8,8.1c-0.9,3.1-2.7,7.6-2.7,10.3 c0,0.4,0,0.4,0,0.4C172.4,85.1,183.8,68,184.9,66.2z M154.8,76.4c0-0.2,0-0.2,0-0.4h-0.2C154.6,75.9,154.8,76.1,154.8,76.4z M156.2,73.7c0-0.2-0.2-0.2-0.2-0.2c0,0.2,0,0.2-0.2,0.4C156,73.9,156.2,73.7,156.2,73.7z M169.9,83.5l0.2,0.4 c0,0.2-0.2,0.4-0.2,0.9l0.2-0.2v-0.2c0-0.2,0-0.4,0-0.9c0-0.2,0-0.2,0-0.2s0-0.2,0-0.4s0-0.4,0.2-0.9v-0.4c0,0-0.2,0-0.2,0.2 s0,0.4,0,0.4l-0.2,0.2c0-0.2,0.2-0.9,0.2-0.9s0-0.2,0-0.4c0,0,0.2,0,0.2-0.2c0.2,0,0.2-0.2,0.2-0.4l0.2-0.2l0.2-0.2 c0-0.2-0.2-0.2-0.2-0.2l-0.2-0.4v0.4h-0.2v0.2l-0.2,0.2h0.2c0,0.2-0.2,0.2-0.2,0.4c0,0.2,0,0.2-0.2,0.2v0.2 c0,0.2-0.2,0.2-0.2,0.2c0,0.2,0,0.7,0,1.1l0.2,0.2C169.9,82.6,169.9,83.3,169.9,83.5z M170.8,81.3L170.8,81.3l0.2-0.4 C170.8,81.1,170.8,81.1,170.8,81.3z M171.2,77.9l-0.2-0.2L171.2,77.9c0.2,0.2,0.2,0,0.2,0c0-0.2,0-0.7,0-0.7s-0.2,0-0.2,0.2 C171.5,77.5,171.2,77.7,171.2,77.9z M171.9,72.8c0,0.2-0.2,0.4-0.2,0.7c0-0.4,0.4-1.1,0.7-1.1C171.9,72.5,171.9,72.8,171.9,72.8 z M173,71.6c0,0.2-0.2,0.9-0.4,0.9l0.4-0.4C173.2,72.1,173.2,72.1,173,71.6l0.2-0.2C173.2,71.2,173,71.6,173,71.6z M176.8,82 c0,0-0.2,0.2-0.2,0.4l-0.7,0.7c0.2,0,0.4-0.4,0.7-0.4c0-0.2,0.2-0.4,0.4-0.7C177.1,81.7,177.1,81.7,176.8,82z M178.4,79.5 c0,0,0,0,0-0.2s-0.2,0.2-0.2,0.2H178.4c-0.2,0.4-0.2,0.4-0.2,0.4c0.2,0,0.7-0.9,0.7-1.1C178.9,79,178.6,79.3,178.4,79.5z M180,77.9c0,0,0.2-0.4,0.4-0.7c-0.7,0.7-1.1,0.7-1.1,1.3C179.3,78.6,179.3,78.6,180,77.9z M183.6,72.3l-0.2,0.4l0.4-0.2 l0.2-0.7C183.8,72.1,183.6,72.3,183.6,72.3z"></path> <path class="st0" d="M216.1,64.9C216.1,64.9,215.9,64.9,216.1,64.9v1.3c0,0.2,0,0.7-0.2,0.9c0,0.2-0.2,0.4-0.2,0.4 c-0.2,0-0.2,0-0.7,0.2l0.2-0.2h-0.4c0,0,0-0.2-0.2-0.2l-0.7,0.7c0.4,0,0.2-0.2,0.7-0.2h0.4c0,0.2-0.7,0.4-0.9,0.4 c0.2,0,0.2-0.2,0.2-0.2c-0.2,0-0.2,0.2-0.4,0.2h-0.2c-0.2,0,0,0.9-0.2,0.9c0,0.2-0.2,0.2-0.4,0.4c0,0,0-0.2-0.2-0.2l-0.2,0.9 c-0.2,0-0.2,0-0.4,0h-0.4c0,0,0,0.4-0.2,0.4c-0.2,0.2,0,0-0.2,0.4L211,71l0.2,0.2c-0.2,0-0.4,0.2-0.7,0.4 c0.2-0.4,0.2-0.4,0.2-0.4l-0.4,0.2c0,0,0.2,0.2,0,0.2l-0.4,0.2l-0.2,0.2c0,0.2,0,0.2,0,0.4l-0.2,0.2c0,0-0.2,0-0.4,0 c0,0.2-0.2,0.2-0.2,0.2c-0.2,0-0.2,0.4-0.4,0.4c0,0-0.7,0.9-0.9,0.9s-0.7,0.4-0.7,0.4l-0.2,0.2c-0.2,0-0.4,0.2-0.9,0.2 c-0.2,0-0.2,0-0.4,0.2c-0.4,0.2-0.4,0.2-0.7,0.7c0,0,0,0.2,0,0.4c0-0.4,0.7-0.7,0.7-0.9l0.2-0.2h0.2l-2,2.5 c-0.7,4-3.4,16.2-4.9,20.7c-2,5.6-8.1,21.3-14.8,22.7l-0.7,0.2c-0.2,0-0.2,0-0.4,0c-0.7,0-0.9-0.2-1.3-0.9 c-0.4-0.2-2-1.3-2.5-1.3c-1.3-0.4-1.8-1.6-1.8-2.5v-0.2c0-0.4,0-0.9,0-1.3c0.2-0.9,0.2-1.6,0.4-2.5c0-0.4,0.2-0.9,0.4-1.3 c0-0.9,0.4-1.8,0.7-2.5c1.1-4.9,4.7-11.5,6.1-13.9l0.2-0.4c0.2-0.2,0.4-0.4,0.4-0.9h0.2c0,0,0-0.4,0.2-0.7c0,0,2.2-3.4,2.9-4.3 l0.2-0.2c0,0.2,0,0.2,0,0.2c0.2,0,0.2-0.4,0.2-0.7l0.2-0.2L189,88l0.2-0.4c0.2-0.2,0,0,0.2-0.2c0.2-0.4,0.7-0.9,1.1-1.3 c1.8-2.7,5.8-7,7-8.3c0.2-0.2,0.2-0.2,0.2-0.4c0.7-3.1,1.6-7.9,2-9.7c-0.2,0.4-0.2,0.7-0.7,1.1c-0.2,0-0.4,0.7-0.4,0.9l-0.4,0.4 c0,0.2-0.2,0.4-0.2,0.4c-0.2,0.2-0.2,0.4-0.2,0.4s0-0.2-0.2,0.2v0.2l-0.2,0.2l-0.2,0.2c-0.4,0-0.2,0.2-0.2,0.4l-0.4,0.7 c-0.2,0.2-0.4,0.2-0.4,0.4s-0.7,0.9-0.7,0.9c-0.2,0.2-0.9,1.3-0.9,1.3l0.2-0.2c0.2-0.2,0.2,0,0.2,0v0.2c0,0.2-0.4,0.2-0.4,0.4 c-0.2,0.2-0.2,0.4-0.4,0.4c-0.4,0.4-0.7,1.1-1.1,1.6c-0.2,0.7-2.2,3.1-2.5,3.1l-0.7,0.7c-0.2,0.2-0.2,0.2-0.4,0.2 c-0.4,0.4-0.2,0.9-0.9,1.1c0,0.2-0.7,0.2-0.7,0.4c0.2,0-0.2,0.4-0.2,0.4c0,0.2,0,0.2-0.2,0.2c-0.4,0.2-1.1,0.7-1.6,0.9 c-0.2,0-0.4,0-0.4,0h-0.4c-0.2,0-0.2,0.2-0.4,0.2s-0.4,0-0.4-0.2c-2.5,0-4-3.4-4-5.6v-0.9c0-2.7,1.6-6.5,3.1-9.4 c0.7-0.9,1.1-1.8,1.8-2.7c2.7-3.4,6.5-7.2,11-7.2c1.1,0,3.4,1.3,3.8,1.6l0.2,0.2c0.4-0.4,2.7-0.4,3.6-0.4c0.4,0,1.3,0.2,1.6,0.4 c0.4,0.4,0.7,0.9,0.7,1.1c0,0.2,0,0.2-0.2,0.4c0,0.4,0.4,1.1,0.4,1.3c0,1.3,0,1.6-0.4,2.7c0,0.4-0.9,4.7-1.3,5.6 c2.5-2,8.1-5.6,11.2-7.2L216.1,64.9z M190.5,93.6c-4.7,9.2-9,17.1-9,22v0.4c0,0.2,0,0.2,0.2,0.4l0.2-0.2 c5.2-3.4,13-25.4,14.6-31.9l-2.5,3.4c0,0.4-0.9,1.1-0.9,1.3c0,0,0,0.2-0.2,0.2c0,0.2-0.4,1.1-0.7,1.1h-0.2 c-0.2,0.2-0.2,0.2-0.2,0.2s-0.4,1.1-0.4,1.3c0,0.2-0.2,0.2-0.2,0.4l-0.2,0.2h-0.2l-0.2,0.2c0,0.2,0.2,0.2,0.2,0.2 c0,0.2-0.4,0.2-0.4,0.4s0,0.2,0,0.2c0,0.2-0.2,0.2,0,0.2S190.5,93.9,190.5,93.6C190.3,93.9,190.5,93.9,190.5,93.6z M198.2,63.8 c0,0-0.4,0-0.7,0c-2.7,0-6.5,4.5-7.9,6.5l-0.7,0.9c-1.1,2-2,3.1-2.9,5.4l-0.4,1.1c-0.2,0.9-1.1,2.9-1.1,4.3 C189.4,77.7,194.1,68.3,198.2,63.8z M184.9,75.5v-0.2c-0.4,0.2-0.2,0.4-0.4,0.9C184.9,75.7,184.9,75.5,184.9,75.5z M186.3,73.7 l0.4-0.2c-0.2-0.2,0-0.2-0.2-0.4c0,0,0,0.2-0.2,0.2V73.7z M186.7,72.5v-0.2l-0.2-0.2c0,0,0,0.4-0.2,0.4 C186.7,72.3,186.7,72.3,186.7,72.5z M187.4,71.9C187.2,71.9,187.2,71.9,187.4,71.9c-0.2,0.2,0,0.4,0,0.7V71.9z M187.4,97.9 c0.2,0,0.2,0,0.2-0.2l0.2-0.2c0,0-0.2,0-0.2,0.2L187.4,97.9z M187.6,109.8c0,0.2-0.2,0.4-0.2,0.7v0.2c0.2,0,0.2-0.4,0.2-0.4 C187.8,109.8,187.8,109.8,187.6,109.8z M188.5,110.3l-0.4,0.2c0,0.2,0,0.2,0,0.4C188.3,110.9,188.5,110.5,188.5,110.3z M189.6,115.7c0,0.2,0,0.4-0.2,0.7c0,0,0.2-0.2,0.2-0.4V115.7z M189.6,115.4c0,0,0.2,0,0.2-0.2V115 C189.9,115,189.9,115.2,189.6,115.4z M189.9,88.5c0.2,0,0.7-0.4,0.7-0.7l-0.2-0.2c0,0,0,0,0,0.2 C189.9,88.3,189.9,88.3,189.9,88.5z M190.3,115c0-0.2,0.2-0.4,0.2-0.4l0.4-0.7c0,0,0-0.2-0.2-0.2l-0.2,0.2v0.2 c0,0,0,0.2-0.2,0.2s-0.2,0.4-0.4,0.4C190.1,114.8,190.1,115,190.3,115z M190.3,88.5c0,0.2,0.2,0.2,0.2,0.2s0.2-0.2,0.2-0.4 c-0.2,0-0.2,0-0.2,0V88C190.3,88,190.3,88.3,190.3,88.5z M191.2,85.8c-0.2,0-0.2,0.2-0.2,0.4c0.2,0,0.2,0,0.2-0.2 C191.2,86,191.2,86,191.2,85.8z M191,86.7c0.2,0,0.2,0,0.2-0.2l0.2-0.2C191.2,86.2,191,86.5,191,86.7z M194.6,74.3v-0.2 c-0.2,0-0.4,0.2-0.7,0.4c-0.2,0.2-0.2,0.2-0.2,0.2s0.2-0.2,0.4-0.2L194.6,74.3z M195.7,73c-0.2,0-0.7,0.2-0.7,0.4l-0.2,0.4 L195.7,73z M195,72.5c0.2,0,0.4-0.4,0.7-0.4c0,0-0.2,0-0.4,0s-0.2,0.2-0.2,0.2h-0.2C195,72.5,195,72.5,195,72.5z M195.5,82.9 c0.2,0,0.2-0.2,0.4-0.2l0.2-0.2C195.9,82.2,195.7,82.6,195.5,82.9z M195.7,84c0.2,0,0.4-0.2,0.4-0.2s0.2-0.2,0.4-0.2l-0.2-0.2 C196.2,83.3,196.2,83.8,195.7,84z M196.8,82.4c0,0,0.2-0.7,0.4-0.7c0,0,0.2,0,0.2-0.2c-0.2,0-0.2,0-0.4,0.2 c-0.2,0.2-0.2,0.2-0.4,0.4l-0.2,0.2h0.2L196.8,82.4z M198,68.3c0,0-0.2,0.2-0.2,0.4c0,0.2,0,0.2,0.2,0.2l0.4-0.4L198,68.3z"></path> <path class="st0" d="M290,55.2c0,0.4-0.2,1.1-0.2,1.3c-0.2,0.9-0.2,1.1-0.4,1.6c-0.2,0.4-0.4,0.9-0.4,1.6V60 c0,0.4-0.7,1.1-0.7,1.8c0,0.2,0,0.4,0,0.4c-0.2,0.9-1.1,4-1.1,4.7c0,0.7-0.2,1.1-0.4,1.6c0,0.7-0.2,1.3-0.4,1.8 c0,0.2,0,0.4,0,0.9l-0.4,1.3c0,0.2,0,0.4,0,0.4c0,0.2,0,0.4-0.2,0.7l-0.2,0.2c0-0.2,0-0.4,0-0.4c0,0.2-0.2,1.1-0.4,1.6 c0,0,0,0,0.2-0.2v0.9c0,0.2,0,0.2,0.2,0.2c0,0.2-0.2,0.2-0.2,0.2l-0.2,0.9c0,0,0.2,0,0.2,0.2s-0.2,0.4-0.2,0.9 c-1.1,4-2,8.1-2.9,12.6c0,0.7,0,1.1-0.2,1.8c0,0.2,0,0.4-0.2,0.7c-0.2-0.2-0.2-0.2-0.2-0.4c0-0.2,0-0.2,0-0.2s0,0.2,0,0.4v0.4 c0,0.9,0.2,0.7,0.2,1.1c0,0.2-0.2,2-0.2,2V97c0,0.2-0.2,0.4-0.2,0.4l-0.4-0.2l-0.4-0.2c-0.2-0.2-0.2-0.2-0.2-0.2h-0.2 c0,0.4,0.2,0.7,0.2,0.7h-0.4c-1.6,0-1.8-1.6-2.5-1.8c-0.9-0.4-1.1-2.2-1.1-2.9c0-1.8,0.2-2.2,0.4-3.8c0-1.3,0.4-2.7,0.7-4.3 c0.2-0.2,0.2-0.7,0.2-1.1c0-0.2,0.2-0.7,0.4-1.1c0-0.4,0-0.9,0.2-1.6l0.2-1.1c0.2-0.7,0-1.3,2-8.5c0.7-2,0.9-3.8,1.6-5.6 c0-0.2,0.2-0.4,0.2-0.9c0-0.2,0-0.2,0-0.4c0-0.9,1.6-6.1,2-6.5l0.2-1.6c0-0.2,0.2-0.2,0.2-0.4c0.4-2,1.3-4.7,1.6-6.5 c0-0.7,0.4-1.3,0.7-2c0.2-2.2,0.7-2.5,0.7-2.9l0.4-4c-4,5.8-6.3,9.4-9.9,16.6c-0.4,0.7-0.4,0.9-0.4,0.9s-0.9,2-0.9,1.8l-0.9,1.1 c0-0.2,1.8-3.8,1.6-3.8c-0.7,0-0.7,1.8-1.6,2.7c-0.2,0.4-0.2,1.3-0.4,1.8l0.2-0.2c-4.3,8.3-9.9,20.9-13.2,26.5 c-0.2,0.4-0.9,1.8-1.3,2.2c-0.2,0.2-0.4,0.4-0.9,0.4s-0.9,0.7-1.3,0.7c0,0-2,0-2.2,0s-0.4,0-0.7,0c-0.2,0-2.5-1.1-2.7-1.1 c-0.2,0-0.2-0.2-0.2-0.4c-0.4-0.4-0.7-0.9-0.9-1.6c-0.7-0.4-0.7-1.6-0.7-2.5c0-0.7-0.2-1.3-0.2-1.8c0-2.2,0.2-4.5,0.2-6.5 c0.4-8.5,1.6-13.7,2-20.4v-0.9c0.2-2.5,0.2-4.5,0.2-6.5c0-2.7,0-6.5-0.9-8.3h-0.2c-0.9,0-2,1.1-2.5,1.8 c-8.1,11.5-11,26.7-13.2,40.4c0,1.1-0.2,2.5-0.4,3.4v0.4c0,0.9,0.2,1.8,0.4,2.7c0,0.2,0.2,0.4,0.2,0.4c0,0.9-1.8,0.9-2.9,0.9 c-0.7,0-1.1,0-1.6,0s-0.9,0-1.1,0c-0.7,0-1.6-1.6-1.6-3.8c0-0.4,0-1.1,0-1.8c0.2-2.9,0.4-6.1,0.7-7.6c1.8-9.7,4.3-18.9,8.1-27.8 c2.7-5.8,7.9-13.9,12.6-13.9c0.7,0,2.7,1.1,3.4,1.3c4,1.1,5.4,6.7,5.4,12.1c0,1.6-0.2,4.9-0.2,6.1c-0.4,10.8-2,20.4-2.5,29.9 v1.1c0,0,0.2-0.2,0.4-0.2l2-3.8c4.3-8.8,8.1-16.6,11.5-23.1c5.6-11,10.1-18.9,14.8-23.4c0.4-0.4,1.1-0.4,1.3-0.4h0.2 c0.9,0,3.1,0.7,3.8,1.1c1.1,0.7,2.5,2.2,2.5,2.5v0.2l-0.2,0.2l0.2,0.2c0.2,0.2,0.2,0.2,0.2,0.4c0,0.2-0.7,0.7-0.7,0.9l0.2-0.2 h0.4c0,1.1,0,1.6-0.2,2.2c-0.4,1.8-0.4,2.9-0.9,4.5c-0.2,0.7-0.9,2.9-1.1,3.8c0,0-0.2,0.2-0.2,0.7l0,0c0,0-0.2,0.4-0.2,0.7 c0,0.4-0.2,1.1-0.2,1.3C290.5,54.3,290.2,54.8,290,55.2L290,55.2z M281.7,80.4v-0.2l-0.2,0.2c-0.2,0.7-0.7,1.8-0.7,2.7 c0-0.2,0.4-0.9,0.4-1.1c0-0.2,0-0.7,0.2-1.1C281.7,80.6,281.7,80.4,281.7,80.4z M283.5,80.4l0.4-1.1c0-0.2,0-0.2,0-0.2 c0.2-0.4,0.2-0.9,0.4-1.3v-0.2c0,0-0.2,0-0.2,0.2C283.5,79.3,283.5,80.2,283.5,80.4z"></path> <path class="st0" d="M297.2,84.2c2.7,0,8.5-7.4,10.3-9.9c2.2-2.9,4.5-6.3,6.1-8.3v0.9c0-0.2,0.2-0.2,0.4-0.4c0,0,0,0.4-0.2,0.9 l0.2-0.4c0,0,0.2,0.4,0.2,0.7c0.2,0.2,0,0.4,0.4,0.4c0.2,0-1.1,2.2-1.3,2.5l-1.8,2.7c-2.2,3.4-9.4,13.7-14.8,13.7 c-4,0-7-4.5-7-8.8c0-0.4,0-1.1,0-1.6c0.4-6.5,4.9-16.6,11.2-18.2c1.6,0.2,6.3,1.8,6.3,4v0.4c-0.2,5.4-4.9,8.5-8.8,8.5h-0.9 l-0.4,0.2c-0.4,1.1-1.8,5.8-1.8,9v0.9C295.9,83.1,296.5,84.2,297.2,84.2z M294.1,80.4v0.7h0.4C294.5,80.8,294.5,80.6,294.1,80.4 z M294.7,79.7c0.2,0.4,0.2,0.7,0.2,0.7c0.2,0,0.2-0.7,0.2-1.1C295,79.5,294.7,79.7,294.7,79.7z M295.6,78.8 c0.2-2.2,1.1-5.2,1.8-7.2c-0.2,0.2-0.4,0.9-0.4,1.1l-0.4,1.1l0.2-0.2c0,0,0,0.4-0.2,0.4c0,0-0.2,0.7-0.2,0.9c0,0,0,0.2-0.2,0.2 c-0.2,0-0.2,0-0.2,0.2l0.2-1.1c0.2-0.7,0.9-2.7,0.9-2.7l-0.2,0.2c-0.4,1.6-0.9,3.1-1.1,4.7l0.2-1.3c0,0,0.2,0.2,0.2,0.4 c0,0.2,0,0.4,0,0.4S295.6,77.9,295.6,78.8z M299,67.6l-0.4-0.2l-0.2,0.2l0.2,0.4C298.6,68,298.6,67.6,299,67.6z M299.5,67.8 l-0.4,0.7c2.2-0.4,4.9-3.6,4.9-5.8c0-0.2-0.2-0.2-0.2-0.2C302.2,63.8,301,64.9,299.5,67.8z M299.5,66.9c0-0.2-0.2-0.2-0.2-0.2 v0.4L299.5,66.9z M310.7,73.9L310.7,73.9c-0.2,0.2,0.4,0,0.4-0.2c-0.2,0-0.2,0-0.2,0C310.9,73.9,310.7,73.9,310.7,73.9z"></path> <path class="st0" d="M341.9,86l-0.7-0.2c0,0-1.3-0.4-1.6-0.4c-1.1-0.7-2-3.1-2-4.9c0-5.6,3.1-14.6,3.1-17.7c0-0.2,0-0.2,0-0.2 c-1.3,0.9-3.1,2.7-4,3.8l-1.3,2l-0.2,0.4c0,0.2-0.7,0.9-0.7,1.1l-0.2,0.2c0,0.2-1.3,2.9-1.3,2.9c-0.4,0.7-0.9,1.8-1.6,2.9v0.2 c-0.2,0.2-0.2,0.2-0.4,0.2c0,0,0,0.2,0,0.4c-0.4,0.9-1.1,2.7-1.8,4.3l-0.9,3.1c0,0.4-0.9,2.7-1.1,2.9c-0.2,0-0.2,0-0.4,0 c-0.2,0-0.4,0-0.4,0.2c-0.2,0-0.2-0.2-0.2-0.2c-0.2,0-0.7,0.2-0.7,0.2h-0.2c0,0-0.2-1.3-0.2-1.6h-0.4c-0.4,0-2-0.4-2.2-1.1v-0.2 c0-1.3,1.3-4.3,1.8-5.6c0.9-3.4,2-7.6,2-11.7c0-1.3,0-2.5-0.2-3.4c-5.2,2.9-9.4,16.4-11,19.8c-1.1,0.4,0.2,1.8-1.8,1.8l-1.1-0.7 c-0.4,0-0.9-0.4-1.6-0.4c-0.2,0-0.2,0-0.4,0c-1.1-0.2-0.7-0.2-0.9-2.2c1.1-6.5,3.1-11.5,4-18.2c0.2-2,0.4-4.9,1.1-5.4h0.4 c2.2,0,4,2.5,4,4.7c0,0.7,0,2-0.2,2.5c0.7-1.1,3.4-5.6,6.3-5.6c4.3,0,5.6,4,5.6,7.6V68c0,0.2,0.2,0.2,0.2,0.2 c2-4.5,6.7-10.6,11.5-10.6h0.2c1.6,0.2,4.5,2.5,4.5,4c0,0.4-0.2,3.1-0.4,3.1c0,0.4-0.4,1.1-0.4,1.6v0.2c0,0.4-0.2,0.9-0.2,0.9 V68c0,0.7-0.2,1.1-0.4,1.8v0.4c-0.2,0.4-0.4,1.6-0.4,1.6l-0.2,0.7c0,0.7-0.2,1.3-0.2,2l-0.2,0.9c0,0.2,0,0.2,0,0.4 c0,1.1-0.4,1.6-0.4,2.5c0,0.2-0.2,1.6-0.2,1.6l-0.2,0.4c0,0,0,0,0,0.2c0,0.4,0,1.1,0,1.3v0.4c0,0.2,0,0.2,0.2,0.4 c0.9,0,3.4-4,4.3-4.7c2.2-2.9,5.2-7.6,9.2-13.2c0,0-0.4,1.3-0.7,2l0.4-0.2l-0.7,1.1h0.9l-0.9,1.1l0.4-0.2v0.7l-0.7,1.6l-1.1,1.8 V73c-0.2,0.2-0.4,0.4-0.7,0.9c-0.9,1.6-2.2,3.4-3.4,5.2c-0.2,0.2-0.9,0.2-1.1,2c0-0.2,0-0.4,0-0.4s-0.2,0.2-0.4,0.2l0.2,0.2 c-0.9,1.3-3.8,4.5-6.1,4.5L341.9,86z M328.7,80.6v-0.4c-0.2,0.7-0.4,1.6-0.4,1.8c0.2-0.2,0.2-0.4,0.2-0.7 C328.4,80.8,328.7,81.1,328.7,80.6z M329.3,77.2l0.2,0.2c0.2,0,0.2-0.2,0.2-0.2H329.3z M330.9,75.5c-0.2,0-0.7,0.4-0.7,0.4 c0,0.4,0.2,0.2,0.2,0.4s-0.2,0.2-0.2,0.4c0,0.2,0.2,0,0.2,0C330.2,76.4,330.9,75.7,330.9,75.5z M331.1,75c0.2,0,0.2-0.7,0.2-0.7 c-0.2,0-0.2,0-0.2,0.2h-0.2v0.2c0,0.2,0,0.2,0,0.4L331.1,75z M335.4,66.2c-0.2,0-0.2,0.2-0.4,0.4c-0.2,0.2-0.2,0.4-0.4,0.7 l-0.2,0.4l0.2-0.2c0,0,0-0.2,0.2-0.2c0,0,0.4-0.4,0.4-0.7C334.9,66.9,335.2,66.5,335.4,66.2z M341.9,78.1c0,0,0-0.2,0-0.4 c-0.4,0-0.4,0.4-0.4,0.7C341.5,78.1,341.9,78.1,341.9,78.1z M342.6,78.1c0,0,0-0.2,0-0.4c-0.4,0-0.4,0.4-0.4,0.7 C342.1,78.1,342.6,78.1,342.6,78.1z M342.6,78.6h-0.2c0,0,0,0.4,0,0.7h-0.2l-0.2,0.4v0.2c0.2,0,0.2,0,0.2-0.2 C342.6,79.3,342.6,79,342.6,78.6z M342.1,76.1c0.2-0.2,0.2-0.4,0.2-0.4s0-0.2-0.2-0.2V76.1z M342.6,74.8V75c0,0.2,0,0.4,0,0.4 c0.2,0,0.2-0.2,0.2-0.4c0,0,0-0.2,0.2-0.4c0-0.2,0-0.4,0.2-0.7c0-0.2,0-0.4,0-0.4C343,73.7,342.6,74.6,342.6,74.8z M343,71.4 c0,0,0-0.2,0.2-0.4C343,71.2,342.8,71.4,343,71.4C342.8,71.6,343,71.6,343,71.4z M343.2,72.1c0,0,0.2-0.2,0.2-0.4 c0,0,0-0.2-0.2-0.2c0,0.2,0,0.2,0,0.4c0,0,0-0.2-0.2-0.2c0,0.2,0,0.2,0,0.4s0,0.2,0,0.2S343.2,72.3,343.2,72.1z M345.9,64 l-0.2,0.2c-0.2,0-0.2,0-0.4,0.2h0.2c-0.2,0-0.4,0-0.4,0.2c0,0,0.2,0,0.2,0.2l0.2-0.2c0.2,0,0.2-0.2,0.2-0.2V64H345.9z M350.2,78.4l0.4-0.7c-0.4,0.4-0.7,0.9-0.7,1.3C350.2,78.6,350.2,78.6,350.2,78.4z M352.7,75.5v-0.2c0,0,0.2-0.4,0.2-0.7 c-0.2,0.4-0.7,0.9-0.7,0.9s0,0.2,0,0.4h0.2L352.7,75.5z"></path> <path class="st0" d="M369.1,65.6c0,0.4,0.2,1.3,0.2,1.8c0,5.4-4.5,14.8-10.1,16.8c-0.4,0.2-0.7,0.2-1.1,0.2h-0.9 c-0.9,0-2-0.2-2.9-0.7c-1.8-0.2-2.2-2.2-2.2-4.5c0-2.5,0.4-4.9,0.7-5.8c0-0.2,0-0.2,0-0.4l0.4-1.1c2.5-7.4,6.7-13.7,11.5-14.1 h0.9c0.2,0,1.3,0.2,1.6,0.4c0.2,0,0.7,0.2,0.7,0.2c0,0.2,0,0.4-0.4,0.7c-0.7,0.2-1.3,0.9-2,1.6c0.9,0.4,1.8,1.1,2.5,2 c4,0,8.8-0.9,11.5-1.3c0.2,0-1.3,2.5-1.6,2.5c-1.1,0.4-2.2,0.7-3.8,0.9c-0.2,0-0.2,0-0.4,0C372,65.1,370.6,65.6,369.1,65.6z M365,65.8h-0.7c-0.7,0-1.1-0.2-1.8-0.4l-1.1,2.7c-1.8,4.5-3.6,9-4,13c0,0,0.2,0,0.4,0s0.2-0.2,0.2-0.2 c2.9-2.7,6.5-9.4,6.7-14.6v-0.4H365z M365,76.4c-0.2,0-0.2,0.2-0.2,0.2s0.2,0,0.2,0.2C364.8,76.8,365,76.6,365,76.4z M366.2,74.6l-0.2,0.4c0,0.2-0.4,0.9-0.7,1.1l0.4-0.2C365.9,75.7,366.2,75.5,366.2,74.6c0.2,0,0.2-0.2,0.2-0.2 S366.4,74.3,366.2,74.6z M365.9,74.1c0,0,0,0.2,0.2,0.2c-0.2,0.4-0.4,0.7-0.4,1.1c0,0,0.2,0,0.2-0.2c0.2-0.2,0.2-0.4,0.4-0.4 v-0.9L365.9,74.1z M367.7,71.4C367.7,71.4,367.5,71.4,367.7,71.4c0-0.4,0-0.7,0.2-0.9c-0.4,0.2-0.7,1.1-0.7,1.6 c-0.2,0.2-0.4,1.1-0.4,1.1l0.4-0.2c0,0,0-0.2,0-0.4c0,0,0-0.2,0-0.4C367.7,72.1,367.5,71.6,367.7,71.4z M367.7,69.2 c0,0.2,0,0.4,0,1.1c0.2-0.2,0.2-0.4,0.2-0.7L367.7,69.2z M367.7,70.7V71c0.2,0,0.2-0.2,0.2-0.2H367.7z M368.4,68v0.9 c0.2-0.2,0.2-0.4,0.2-0.9c0-0.2,0-0.2,0-0.4L368.4,68z"></path> <path class="st0" d="M371.1,86c-0.2,0-0.2-0.7-0.2-0.9s0-0.2,0-0.2c0-0.2,0-0.4,0.2-0.9v-1.3c0-0.2,0.2-0.2,0.2-0.4v-1.1 c1.3-7,3.1-11.9,4.7-19.1c0-0.4,0.2-1.1,0.2-1.6c0-0.2,0.4-0.4,0.4-0.7c0.2-0.2,0.4-0.4,0.9-0.4c0.2,0,1.6,0.4,2.2,0.7 c0.4,0,1.1,0.4,1.1,0.9c0.4,0.4,0.4,0.9,0.4,1.6v0.9c0,1.1,0,1.1-0.2,2.5c2-2.7,6.3-5.6,8.5-5.6c0.7,0,1.1,0.4,1.3,0.9v0.2 c0,0.2,0,0.2-0.2,0.2c-0.4,0.2-0.9,0.2-2.7,1.3c-0.2,0-0.4,0.2-0.4,0.2l-0.7,0.4c-0.2,0-0.4,0.2-0.4,0.4l-1.8,2 c-0.2,0.2-0.7,0.4-0.7,0.7c-0.4,0.4-0.7,0.9-0.9,1.1c0,0,0,0.2-0.2,0.2c0,0.2-0.2,0.4-0.2,0.7c-0.2,0.2-0.4,0.4-0.4,0.7 c-0.2,0.2-0.2,0.2-0.2,0.2s0,0,0,0.2l-0.2,0.2c0,0.2-0.2,0.2-0.2,0.4l-0.4,0.2c0,0.2,0,0.2,0,0.4c-0.2,0.2-0.4,0.7-0.4,0.9 c-0.2,0.4-0.7,0.7-1.1,1.6l-0.2-0.2c0,0.2,0,0.2,0,0.2c0,0.2,0,0.2-0.2,0.2c0,0.2,0,0.2,0,0.4v0.2c0,0.4-0.2,0-0.2,0.4 c-0.2,0-0.2,0.2-0.4,0.4c0-0.2,0-0.2,0-0.2c0-0.2,0-0.2,0-0.2l-0.2-0.2c0,0,0,0,0-0.2s0-0.2,0-0.4c0.2-0.2,0.2-0.2,0.2-0.4 c-0.2,0-0.4,0.9-0.7,0.9c0,0-0.2,0.4-0.2,0.7c-0.2,0-0.2,0.2-0.2,0.4c0,0.2-0.4,0.9-0.4,1.1c0,0,0.2-0.7,0.4-0.9 c0-0.4,0.2-0.7,0.2-0.7c0-0.2,0-0.4,0.2-0.4c0,0,0,0.7-0.2,1.1l0.2-0.2c0,0.2-0.2,0.4-0.4,0.4v0.4c0,0,0,0.2-0.2,0.2 c0,0.4-0.2,0.4-0.2,0.4V77c-0.4,0.2-0.4,0.4-0.4,0.9v0.4c0.2-0.4,0.2-0.7,0.2-0.9c0.2,0,0.2,0,0.2,0.2c0,0,0,0.2-0.2,0.4v0.2 c0,0,0,0.2,0.2,0.2c0,0,0,0.2-0.2,0.2l-0.4,0.9c0,0.2,0,0.4-0.2,0.7v0.4c-0.2,0.2-0.2,0.4-0.2,0.7c0,0,0,1.1-0.2,1.1l-0.2,0.9 c0,0.2-0.2,1.1-0.2,1.1s0.2-0.4,0.2-0.7c0.2,0,0.2-0.9,0.2-1.1l0.2-0.9c0-0.2,0.2-0.7,0.2-0.9s0.2-0.4,0.2-0.7 c0-0.2,0.2-0.4,0.2-0.4c0-0.2,0.2-0.4,0.2-0.7c0-0.2,0-0.4,0.2-0.7c0-0.2,0.2-0.4,0.2-0.4v0.4c0,0.2-0.2,0.7-0.2,0.7 s-0.2,0.4-0.2,0.7v0.2c0,0.2,0,0.2,0,0.2l-0.2-0.2c0,0.2-0.2,0.2-0.2,0.4c0.2,0.2,0.2,0.2,0.2,0.4c0,0,0.2-0.4,0.4-0.9 c0,0.2,0,0.4-0.2,0.7c0,0.2,0,0.4,0,0.4c-0.2,0.2-0.2,0.2-0.2,0.2v0.2l-0.4,1.1v0.7c0.2,0,0.2-0.2,0.2-0.2v-0.2 c0-0.2,0-0.2,0-0.4h0.2c0,0,0,0.2,0,0.4s0,0.2,0,0.2s0,0.2,0.2,0.2c0-0.2,0-0.4,0.2-0.4c0,0.2-0.2,0.4-0.2,0.7v0.7 c-0.2,0-0.4,1.1-0.4,1.1c0-0.2-0.2-0.2-0.2-0.2l-0.2,0.2v-0.4l-0.2,0.2c0,0,0-0.2,0-0.4c0,0,0-0.2,0.2-0.2c0,0,0-0.2,0.2-0.4 c0.2,0,0.2,0,0.2-0.2s-0.7,0.7-0.7,0.9s0,0.4-0.2,0.4c0,0.2,0,0.4-0.2,0.7c0,0-0.2,0.4-0.4,0.4c0,0-0.2,0.2-0.4,0.2h-0.4 c-0.2-0.2-0.4-0.2-0.4-0.4c0,0-0.4,0-0.7-0.2C372.9,86.5,371.1,86.5,371.1,86z M374,84.2c0,0-0.2,0-0.2,0.2 c-0.2,0-0.2,0.2-0.2,0.2s0,0.2,0.2,0.2c0,0.2,0,0.4-0.2,0.4l0.2,0.4l0.2-0.4c0-0.2,0-0.4,0.2-0.4c0,0.2-0.2,0-0.2,0.2 c0-0.2,0-0.2,0.2-0.4C374,84.2,374,84.2,374,84.2z M374.9,83.3c-0.2,0-0.4,0-0.4,0.4c0,0,0-0.2,0.2-0.2 C374.9,83.5,374.9,83.5,374.9,83.3z M374.9,77c-0.2,0-0.2,0-0.2,0.2h0.2V77z M376.7,78.8c0,0.2,0,0.4,0,0.9 c0-0.2,0.4-1.3,0.4-1.3h-0.2C376.7,78.6,376.7,78.6,376.7,78.8z M382.1,68.3c0-0.2,0-0.4,0-0.7C382.1,67.6,381.9,68,382.1,68.3 l-0.4,0.2L382.1,68.3z M382.8,68l0.4-0.2c0,0-0.2,0-0.2-0.2C382.8,67.8,382.8,67.8,382.8,68z M383.2,64.4 c-0.2,0-0.2,0.2-0.2,0.2s0.4-0.4,0.7-0.4C383.4,64.2,383.2,64.4,383.2,64.4z M385.9,63.1c-0.2,0-0.9,0.7-0.9,1.1 C385.5,63.8,385.7,63.6,385.9,63.1z"></path> <path class="st0" d="M394.9,76.1c0,0,0.2-0.2,0.4-0.2c-0.7,1.8-1.1,3.6-1.3,5.2l-0.2,1.1l0.2,0.2c2-0.9,7.4-12.1,15-18.2 c0.2-0.2,0.4-0.2,0.9-0.2c0.2,0,2,0,2.2,0h0.4c0.7,0,0.9,0.4,0.9,0.9c0,0.2,0,0.4-0.2,0.7c0,0.4,0.4,1.6,0.4,2 c0,0.4-0.2,2.2-0.2,2.9c0,0.4-0.2,2.5-0.2,2.7c0,0,0.4-0.2,0.4-0.4l0.4-0.4c2.5-2.2,5.4-4.5,8.3-5.2c0.2,0,0.7,0,1.1,0 c0.2,0,0.4,0,0.7,0c0.2,0,0.2,0,0.2,0.2s0,0.2,0,0.2L425,68c0,0.2-0.2,0.7-0.2,0.7s0,0,0.2,0.2c-3.6,2.2-8.5,5.8-11.9,10.1 c-2.5,16.2-9.4,30.5-14.6,30.5c-1.1,0-1.3-0.4-2.7-1.3c-1.6,0-2.2-1.6-2.2-3.4v-0.2c0.2-4,3.1-10.1,4.3-12.1 c0.9-1.3,1.6-3.1,2.7-4.5c0-0.2,0.2-0.9,0.4-0.9c1.6-2.5,3.4-4.7,6.3-8.3c0-0.2,0.2-0.9,0.4-0.9c0,0,0-0.2,0-0.4l0.9-7.2 c-4.3,4.7-7.2,11.5-12.6,15.9c-0.2,0.2-0.4,0.4-0.9,0.4c-0.9,0-2.5-0.7-2.5-0.7c-0.4,0-2.2-1.1-2.2-1.1l-0.2-0.2 c-0.9-0.9-1.3-1.6-1.3-2.7v-2.2c0-3.4,1.3-8.3,2.7-11c0-0.2,0.2-0.7,0.4-1.1c0.4-0.9,1.3-2.9,2.2-3.6c0.2-0.7,0.9-1.3,1.1-1.8 c1.1-1.8,4.3-4.7,6.3-4.7c0.9,0,3.8,1.1,3.8,1.6c0,0.2,0,0.2-0.2,0.4c0,0-0.2,0.7-0.4,0.9c0,0-0.2,0-0.2,0.2 c-0.2,0-0.2,0.2-0.2,0.4c-2,2.5-5.2,7.6-7.4,13c0-0.7,0.2-1.6,0.2-1.8c1.1-2.7,2.7-5.2,4-7.2c0.4-0.7,0.9-1.3,1.6-2.2 c-2,2-5.2,7.9-6.1,10.3c0,0.2-0.4,1.3-0.9,2.2l-0.2,0.7c0,0.2-0.2,0.4-0.2,0.4V77v0.2c-0.2,0.9-0.4,2-0.7,3.1v0.9 c0,0,0-0.2,0-0.4C393.8,79.5,394.4,77.7,394.9,76.1z M393.1,79.9v0.4c0,0,0,0.2,0.2,0.2c0,0,0-0.2-0.2-0.4V79.9 c0.2,0,0-0.2,0-0.4c0,0.2-0.2,0.2-0.2,0.2c0.2,0,0.2,0.4,0.2,0.4C392.9,80.4,393.1,80.2,393.1,79.9z M392.9,80.8 c0.2,0.2,0.2,0.2,0.2,0.2c0.2,0,0.2,0.2,0.2,0.4v0.2c0,0.2,0,0.2,0.2,0.2c-0.2-0.2-0.2-0.7-0.2-1.1 C393.1,81.1,392.9,81.1,392.9,80.8z M393.3,79v-0.2V79l-0.2,0.4c0.2,0,0.2,0,0.4,0.2C393.6,79.5,393.3,79.3,393.3,79z M395.3,75.5c0-0.2,0-0.4,0-0.4c0-0.2,0.2-0.2,0.4-0.4C395.6,74.6,395.6,75,395.3,75.5z M405.5,85.3l-0.7,1.1 c-1.1,1.6-8.3,14.8-8.5,18.9c0,0.2,0.2,0.4,0.2,0.4c0.2,0,0.7-0.7,0.9-1.1c3.1-4,5.2-9.9,7.6-17.5c0,0,0.2,0,0.2-0.2 c0-0.2,0-0.2,0-0.2c0-0.2,0.2-0.2,0.2-0.4C405.5,86.2,405.5,85.8,405.5,85.3z M401.6,105.8c0,0.2-0.2,0.4-0.2,0.4l0.4-0.2 c0-0.2,0.4-0.4,0.4-0.4c0.2-0.2,0.4-0.7,0.4-1.1c0.2,0,0.2-0.9,0.2-1.1c-0.2,0.2-0.4,1.3-0.7,1.6c0,0.2-0.2,0.4-0.2,0.4 l-0.2-0.2c0,0-0.4,0.2-0.4,0.4C401.2,105.5,401.4,105.8,401.6,105.8z M402.5,88.9c0,0.2-0.2,0.2-0.4,0.7c0,0.2-0.2,0.2-0.2,0.4 c-0.2,0-0.2,0.2-0.2,0.2v0.2c0.2-0.4,0.2-0.4,0.4-1.1c0.2-0.4,0.2-0.4,0.4-0.9L402.5,88.9z M402.1,103.7l-0.2,0.2 c0,0.4,0,0.7,0.2,0.7l0.2-0.2c0,0,0-0.2-0.2-0.2V103.7z M402.3,85.3v0.2c0,0,0,0.2,0.2,0.2L402.3,85.3c0.4,0,0.4,0,0.4-0.2 C402.5,85.3,402.3,85.3,402.3,85.3z M403,101.5c0,0,0,0.2,0,0.4c0-0.2,0.2-0.2,0.2-0.4s0-0.2,0-0.2 C403,101.3,403,101.5,403,101.5z M403.9,101.7c0.2-0.2,0.4-1.6,0.4-2c-0.2,0.4,0,0.7-0.2,0.9c-0.2,0.4-0.2,0.9-0.4,1.3v0.2 L403.9,101.7z M403.9,87.1c0,0,0-0.2-0.2-0.2c0,0.2,0,0.2,0,0.4C403.7,87.4,403.9,87.4,403.9,87.1z M404.1,83.8l1.6-2.2 c0.2-0.4,0.4-0.9,0.7-0.9v-0.4c-0.2,0.2-2.2,2.9-2.5,3.4C403.9,84,404.1,84,404.1,83.8z M405,85.3l0.4-0.4 c0-0.2,0.2-0.4,0.4-0.7V84c0,0-0.4,0.4-0.4,0.7c0,0,0,0.2-0.2,0.2s-0.4,0.7-0.4,0.7l-0.7,0.9c0.2,0,0-0.2,0.2-0.2l0.4-0.4 C405,85.8,405,85.3,405,85.3z M404.6,99.9c0,0.4,0,0.4,0,0.4c0.2-0.4,0.2-0.9,0.2-1.3C404.6,99.5,404.8,99.9,404.6,99.9z M405.7,97.2c0,0,0.2,0.2,0.4,0.4c0-0.2,0-0.4,0-1.1L405.7,97.2z M405.9,80.4c0.2,0,0.4-0.2,0.4-0.4v-0.2L405.9,80.4z M405.9,96.1c0.4,0,0.4-0.7,0.4-0.9C406.1,95.9,405.9,96.1,405.9,96.1z M406.1,93.6c0.2,0,0.2,0.4,0.2,0.4 c0,0.2-0.2,0.4-0.2,0.4c0.2,0,0.2-0.2,0.4-0.4v-0.4H406.1z M406.8,95.7c0,0.2,0,0.4-0.2,0.7c0,0-0.2,0.2-0.2,0.4 c0,0.2,0.2,0.2,0.2,0.4c0.2-0.2,0.2-0.7,0.2-1.1V95.7z M407.9,86.7c0,0.4-0.2,0.9-0.2,0.9s0,0.2,0.2,0.2 C407.9,87.6,407.9,87.1,407.9,86.7z"></path> <path class="st0" d="M474.6,45.4L474.6,45.4l0.2,0.4c0.4,0.4,0.7,2.2,0.7,2.2l-0.2,1.1c0.2,0.2,0.2,0.4,0.2,0.9 c0,0.2,0,0.2,0,0.4v2.2c0,0.2,0,0.4-0.2,0.9c0-0.4,0-0.9,0-1.1s0.2-0.4,0.2-0.9V51c0-0.2,0-0.4,0-0.9l-0.2-1.6 c0-0.9,0-1.3-0.4-1.8c0,0.4,0.2,1.1,0.4,1.6l-0.2,0.2v0.7c0,0.2-0.2,0.2-0.2,0.2s0.2,0.7,0.2,1.3V51v3.6c0,0.2,0,0.4,0,0.9 c0,0-0.2,0.4-0.7,2.2V60c0,1.3-0.7,4.7-1.1,5.4c-0.4,0.4-0.2,1.3-0.7,2.2l-0.4,1.1c-0.7,1.3-0.4,1.1-2,3.8 c0,0.2,0.9-1.8,1.3-1.8c-0.2,2.5-2.2,3.6-3.1,6.3c0.7-0.7,1.3-2.5,2.2-3.4c0,0.7-0.7,1.1-0.7,1.6c0,1.1-1.3,1.8-1.3,3.1 c-0.2,0.4-1.8,1.3-2,1.8c0.4,0,1.1-0.9,1.6-1.1c-2.5,4.7-7.6,11-9.4,11c0.2,0,0.4-0.4,0.7-0.7c0,0-0.2,0-0.4,0 c-0.2,0.4-0.7,0.7-0.7,0.7l-0.2,0.2c-0.4,0-0.2,0.7-0.7,0.7h-0.2c0,0.2-1.8,1.1-3.8,1.1h-0.2c-0.4,0.4-1.1,0.4-2.2,0.4h-0.7 c-1.1,0-2.9-0.2-3.8-0.7c-1.1,0-3.4-1.8-3.8-1.8l-0.4-0.4c-3.6-3.8-5.8-6.1-5.8-16.2c0-9.2,3.1-21.3,12.4-31.4 c0.4,0,2-1.1,2-1.8c0-0.2,0.7,0.2,1.6-1.3v-0.7c2-2.2,6.1-4,9-4.3h0.7c0.2,0,0.2,0,0.2,0c0.2,0,0.4,0,0.7,0c0,0,0.2,0,0.4,0 c4.7,0,10.6,3.1,11.9,9.2L474.6,45.4z M442.1,76.8c0,6.5,1.8,12.4,7.6,12.4c10.6,0,20.2-25.6,20.2-38v-0.7 c-0.2-4.7-1.1-12.4-7.2-12.4c-0.2,0-2.5,0.2-2.9,1.3c0.4-0.2,0.9-0.4,1.1-0.7h0.4c0,0.2,0,0.2-0.2,0.2s-4.7,2.5-4.7,3.8 c0,0.2,0.2,0.7,0.2,0.7c0,0.2,0,0.2-0.4,0.4c-4.3,5.6-6.5,14.6-7.2,23.4v2.7c0,2.5,0.7,5.6,2.9,5.6c0.7,0,0.9-0.4,1.6-0.4 c0,0,0.2,0,0.4,0s0.2,0,0.4-0.2c0.2,0,0.2,0,0.2,0.2s-0.4,1.3-1.3,1.8c-0.2,0-0.7,1.3-2.5,1.3h-1.6c-4.9,0-5.2-7.6-5.2-10.1v-2 c0-2.7,0.7-5.6,1.1-7.4C444.3,59.1,442.1,69.8,442.1,76.8z M453.3,39.5l-0.7,0.7c-0.2-0.4-0.2-0.4-0.2-0.4l-0.2,0.4v-0.4 c0.2,0,0.7-0.9,0.9-1.1c0-0.2,0-0.2-0.2-0.2s-1.1,0.7-1.3,1.1c0.2,0,0.2,0,0.2,0c-0.4,0.2-2,1.3-2,2.2l0.4-0.4 c0,0.2,0,0.2,0,0.2c0.9,0,0.7-0.9,1.8-0.9l-0.2,0.2C452.6,40.6,453.1,40,453.3,39.5z M454,40.4L454,40.4 c-0.2-0.2-0.4,0.2-0.4,0.2l-0.9,0.7l0.2,0.2l0.2-0.4c0,0,0.7-0.4,1.1-0.9H454V40.4z M457.8,38.8c0.2-0.2,0.7-0.4,0.7-0.7 C458,38.2,457.8,38.2,457.8,38.8h-0.4H457.8z M458.2,39.1v0.2c0,0.4-0.4,1.1-0.4,1.3l1.1-1.3c0-0.2,0.4-0.7,0.7-0.7l0.7-0.4 c-0.7,0-1.1,0.9-1.8,1.1h-0.2V39.1z M458,86.9c0.2,0,0.7-0.2,0.9-0.2v-0.4c0,0-0.2,0-0.2,0.2L458,86.9z M459.6,88.3l-0.4,0.7 l0.7-0.4L459.6,88.3z M460.2,87.8H460c0,0.2-0.2,0.4-0.2,0.4h0.4L460.2,87.8L460.2,87.8z M461.1,85.1c0.4-0.4,0.9-1.1,1.3-1.6 H462c-0.7,0-0.9,0.2-1.1,0.7v0.9H461.1z"></path> <path class="st0" d="M487.2,82.6l0.2,0.7l0.7,0.4l0.9,1.8c0.2,0.4,0,0.7,0.2,1.1c0.2,0.2,0.2,0.4,0.2,0.7v0.4 c0,0.4,0.2,0.9,0.2,1.1c0,0.4,0,0.9,0,1.3l0.2,1.6V93c0,0.2,0,0.2,0,0.4V95c-0.4,5.6-2.2,11-3.4,13.2c0,0,0,0.2-0.2,0.2 c0,0.2-0.2,0.4-0.2,0.9l-0.2,0.2c-0.2,0.2-0.7,1.3-0.9,1.8l-1.3,1.8c-0.2,0.2-0.2,0.4-0.7,0.4l-1.3,0.9 c-0.4,0.2-0.7,0.2-0.9,0.2h-0.4c-0.7,0-1.3-0.2-2-0.2c-0.4,0-2.2-0.9-2.7-1.1c-0.7-0.4-1.8-1.1-2.5-2l-0.9-2 c-0.2-0.2,0-0.7-0.2-0.9v-0.2c0-0.2,0-0.2,0-0.4c-0.2-0.4-0.2-1.1-0.4-1.3v-0.2v-0.7v-0.2v-0.9c0-0.2-0.2-0.4-0.2-0.7 c0-0.2,0-0.2,0-0.2v-0.9c0-1.1,0-2,0.2-2.9v-2.5c0-0.4,0.2-0.9,0.2-1.3c0.2-1.1,0.2-2.2,0.4-3.1c0.2-1.3,0.2-2.7,0.7-4 c0.7-3.8,1.3-6.7,2-9.4c0-0.2,0-0.2,0-0.4c0-0.4,0.2-0.9,0.4-1.1l0.9-3.6c1.3-5.4,2-7.9,2.7-10.1l2.2-7 c1.3-4.5,3.4-9.2,5.6-13.5c0.7-1.6,4-7.9,5.8-7.9c0.2,0,3.4,2,3.6,2.2c0.4,0.2,0.9,0.4,1.3,1.1c0.4,0.4,0.9,1.3,0.9,2v0.2 c0,1.3-0.2,2.7-0.7,3.8c-0.2,1.3-0.7,2.5-0.9,3.8c-0.2,0.9-0.7,2-0.9,2.9l-3.1,8.3c-0.7,1.3-1.3,2.7-2.2,4.3 c-1.3,3.1-3.1,6.1-4.9,9l-1.8,2.7c5.2-1.6,11-5.4,15.7-10.1c0,0-0.2,0.7-0.2,1.1v0.2v0.4l-0.2,0.4v0.4c0,0.2,0,0.7,0,0.7 l-0.4,0.7c-3.4,4-8.8,7.4-13.9,9.4c1.1,0.9,1.8,1.6,2.5,2.2L487,82c0,0.2,0.2,0.2,0.4,0.2c0.4,0.2,0.9,0.9,1.1,1.6l-0.7-0.9 C487.4,82.9,487.2,82.6,487.2,82.6z M477.3,108c0,0.2,0,0.4,0,0.4c0.2,0.9,0.2,1.8,0.7,2.7c0.2,0.4,0.4,0.7,0.9,0.9 c0.4,0,0.9-0.2,1.1-0.4c0.4-0.4,0.9-1.1,1.3-1.8c0.4-0.7,0.7-1.1,0.9-1.8c0.2-0.4,0.2-0.9,0.7-1.3c0.2-0.4,0.4-0.9,0.4-1.1 l0.4-1.6c0.4-0.9,0.9-3.6,1.1-4.7c0.2-0.4,0.2-1.1,0.2-1.6c0-0.2,0.2-0.4,0.2-0.9c0-0.2,0-0.2,0-0.4v-0.2c0-0.2,0-0.7,0.2-1.3 v-0.2c0-0.4,0-0.9,0-1.3l-0.2-2.5c0-0.9-0.2-1.6-0.4-2.5c-0.2-0.9-0.2-1.8-0.7-2.5c-0.2-0.4-0.4-0.9-0.7-1.1 c-0.2-0.9-1.1-1.3-1.8-2.2c-0.2-0.2-2.5-1.3-2.5-1.3c-0.2,0-0.2,0-0.2,0.2c-0.7,3.4-1.8,6.5-2.7,16.4c-0.2,1.8-0.2,3.4-0.2,5.2 v2.7C477.1,106.7,477.3,107.3,477.3,108z M477.3,68.7l0.4-0.4c0,0,0.2,0,0.2-0.4l-0.2-0.2C477.5,67.8,477.3,68.5,477.3,68.7z M481.1,68.3l-0.2,0.9l0.2-0.2l0.2-0.4C481.1,68.3,481.1,68.3,481.1,68.3z M482.7,67.8l0.2-0.4c0-0.2,0.2-0.2,0.2-0.4 c0,0-0.4,0-0.4,0.2C482.7,67.4,482.7,67.6,482.7,67.8z M483.4,62v-0.4c-0.2,0-0.4,0-0.4,0.2C483.2,61.8,483.2,61.8,483.4,62z M484.1,64.2c0-0.2-0.4,0.9-0.4,0.9v0.2l0.2-0.4C483.8,64.9,483.8,64.7,484.1,64.2z M492.1,45.1l-1.1,2v0.2v0.2l-2,4.3 c-0.4,1.1-0.9,2.2-1.3,3.4c0,0.2-0.2,0.7-0.4,0.9c0,0.2-0.2,0.4-0.2,1.1v0.2l-0.2,0.4c0,0.7-0.7,1.1-0.7,1.8 c0,0.4-0.2,0.4-0.2,0.7c0,0,0,0-0.7,2.2l-0.4,1.1c-0.2,0.2-0.2,0.7-0.2,1.1l-0.4,0.9c0,0.4-0.4,1.3-0.4,1.3 c1.1-1.6,2.5-4.5,3.4-6.3l2.2-4.5c0.7-1.6,1.3-3.1,2-4.9c0.9-2.2,1.3-4.3,2.2-6.3l0.4-1.8c-0.7,0-0.9,0.9-1.1,1.3 C492.1,44.5,492.1,44.9,492.1,45.1z M483.6,72.3c0.4-0.2,0.9-1.1,0.9-1.3c0,0,0,0,0.2-0.2C484.1,71,483.8,71.4,483.6,72.3z M485.4,68.3c0.2-0.2,0.9-1.3,0.9-1.3l-0.2-0.2C485.6,67.4,485.4,67.8,485.4,68.3z M486.1,107.8c0.2-0.2,0.4-0.7,0.4-0.9 c0,0-0.4,0.2-0.4,0.4C486.1,107.6,486.1,107.6,486.1,107.8z M489,88.3c0-0.2-0.2-0.9-0.2-0.9c0-0.2,0-0.4-0.2-0.4 c0,0.2,0,0.4,0.2,0.4v0.2l-0.2,0.2C488.5,88,488.8,88.3,489,88.3L489,88.3z M489,93.2v-1.3v-0.4c0,0-0.2,0.2-0.2,0.4L489,93.2 c-0.2,0.2-0.2,0.2-0.2,0.2s0,0.2,0.2,0.2v-0.2C488.8,93.4,488.8,93.4,489,93.2z M489,90.5h0.2v-0.4c0-0.2,0-0.2,0.2-0.4v-0.2 c-0.2,0-0.2,0.4-0.2,0.7v0.4H489z M489.4,96.3l0.2-0.7c0,0-0.2,0.2-0.2,0.4C489.2,96.1,489.4,96.3,489.4,96.3l-0.2,0.2 c0,0,0,0.2,0,0.4C489.4,96.8,489.2,96.6,489.4,96.3z M497.1,70.1c0.2-0.2,0.4-0.4,0.4-0.7v-0.4 C497.5,68.9,497.3,69.8,497.1,70.1z"></path> <path class="st0" d="M552.1,45.4L552.1,45.4l0.2,0.4c0.4,0.4,0.7,2.2,0.7,2.2l-0.2,1.1c0.2,0.2,0.2,0.4,0.2,0.9 c0,0.2,0,0.2,0,0.4v2.2c0,0.2,0,0.4-0.2,0.9c0-0.4,0-0.9,0-1.1s0.2-0.4,0.2-0.9V51c0-0.2,0-0.4,0-0.9l-0.2-1.6 c0-0.9,0-1.3-0.4-1.8c0,0.4,0.2,1.1,0.4,1.6l-0.2,0.2v0.7c0,0.2-0.2,0.2-0.2,0.2s0.2,0.7,0.2,1.3V51v3.6c0,0.2,0,0.4,0,0.9 c0,0-0.2,0.4-0.7,2.2V60c0,1.3-0.7,4.7-1.1,5.4c-0.4,0.4-0.2,1.3-0.7,2.2l-0.4,1.1c-0.7,1.3-0.4,1.1-2,3.8 c0,0.2,0.9-1.8,1.3-1.8c-0.2,2.5-2.2,3.6-3.1,6.3c0.7-0.7,1.3-2.5,2.2-3.4c0,0.7-0.7,1.1-0.7,1.6c0,1.1-1.3,1.8-1.3,3.1 c-0.2,0.4-1.8,1.3-2,1.8c0.4,0,1.1-0.9,1.6-1.1c-2.5,4.7-7.6,11-9.4,11c0.2,0,0.4-0.4,0.7-0.7c0,0-0.2,0-0.4,0 c-0.2,0.4-0.7,0.7-0.7,0.7l-0.2,0.2c-0.4,0-0.2,0.7-0.7,0.7h-0.2c0,0.2-1.8,1.1-3.8,1.1h-0.2c-0.4,0.4-1.1,0.4-2.2,0.4h-0.7 c-1.1,0-2.9-0.2-3.8-0.7c-1.1,0-3.4-1.8-3.8-1.8l-0.4-0.4c-3.6-3.8-5.8-6.1-5.8-16.2c0-9.2,3.1-21.3,12.4-31.4 c0.4,0,2-1.1,2-1.8c0-0.2,0.7,0.2,1.6-1.3v-0.7c2-2.2,6.1-4,9-4.3h0.7c0.2,0,0.2,0,0.2,0c0.2,0,0.4,0,0.7,0c0,0,0.2,0,0.4,0 c4.7,0,10.6,3.1,11.9,9.2L552.1,45.4z M519.8,76.8c0,6.5,1.8,12.4,7.6,12.4c10.6,0,20.2-25.6,20.2-38v-0.7 c-0.2-4.7-1.1-12.4-7.2-12.4c-0.2,0-2.5,0.2-2.9,1.3c0.4-0.2,0.9-0.4,1.1-0.7h0.4c0,0.2,0,0.2-0.2,0.2s-4.7,2.5-4.7,3.8 c0,0.2,0.2,0.7,0.2,0.7c0,0.2,0,0.2-0.4,0.4c-4.3,5.6-6.5,14.6-7.2,23.4v2.7c0,2.5,0.7,5.6,2.9,5.6c0.7,0,0.9-0.4,1.6-0.4 c0,0,0.2,0,0.4,0c0.2,0,0.2,0,0.4-0.2c0.2,0,0.2,0,0.2,0.2s-0.4,1.3-1.3,1.8c-0.2,0-0.7,1.3-2.5,1.3h-1.6 c-4.9,0-5.2-7.6-5.2-10.1v-2c0-2.7,0.7-5.6,1.1-7.4C521.8,59.1,519.8,69.8,519.8,76.8z M530.8,39.5l-0.7,0.7 c-0.2-0.4-0.2-0.4-0.2-0.4l-0.2,0.4v-0.4c0.2,0,0.7-0.9,0.9-1.1c0-0.2,0-0.2-0.2-0.2c-0.2,0-1.1,0.7-1.3,1.1c0.2,0,0.2,0,0.2,0 c-0.4,0.2-2,1.3-2,2.2l0.4-0.4c0,0.2,0,0.2,0,0.2c0.9,0,0.7-0.9,1.8-0.9l-0.2,0.2C530.1,40.6,530.5,40,530.8,39.5z M531.7,40.4 C531.7,40.4,531.4,40.4,531.7,40.4c-0.2-0.2-0.4,0.2-0.4,0.2l-0.9,0.7l0.2,0.2l0.2-0.4c0,0,0.7-0.4,1.1-0.9h-0.2V40.4z M535.3,38.8c0.2-0.2,0.7-0.4,0.7-0.7C535.7,38.2,535.3,38.2,535.3,38.8h-0.4H535.3z M535.7,39.1v0.2c0,0.4-0.4,1.1-0.4,1.3 l1.1-1.3c0-0.2,0.4-0.7,0.7-0.7l0.7-0.4c-0.7,0-1.1,0.9-1.8,1.1h-0.2V39.1z M535.5,86.9c0.2,0,0.7-0.2,0.9-0.2v-0.4 c0,0-0.2,0-0.2,0.2L535.5,86.9z M537,88.3l-0.4,0.7l0.7-0.4L537,88.3z M537.7,87.8h-0.2c0,0.2-0.2,0.4-0.2,0.4h0.4V87.8z M538.6,85.1c0.4-0.4,0.9-1.1,1.3-1.6h-0.4c-0.7,0-0.9,0.2-1.1,0.7v0.9H538.6z"></path> <path class="st0" d="M582,68.5l0.7-1.1c0.2-0.4,0.9-1.3,0.9-1.3c0,0.2,0,0.2,0,0.2v0.2c-0.4,0.9-0.2,0.7-0.2,0.7l0.4-0.7 c0,0.2,0.2,0.2,0.2,0.2l-0.4,1.3l0.7-0.9v0.4L584,68c0,0,0,0.2,0.2,0.2c0,0,0,0,0-0.2v0.9c0,0.2-0.4,1.1-0.4,1.1s-0.7,2-5.8,9 c-2,2.9-6.1,7.4-8.3,7.4c-2,0-5.2-1.8-5.2-5.2v-0.4c0.2-2.5,0.4-4.3,0.9-5.8c-1.8,3.4-5.4,9-8.1,9h-0.4 c-2.7-0.4-4.7-2.7-5.2-4.3v-0.9c0-0.2,0-0.4,0-0.7c0-3.4,0.7-6.7,2.5-10.6c1.3-3.1,4.5-7.6,5.8-7.6c0.9,0,4,0.7,4,1.6 c0,0.2-0.2,0.4-0.2,0.4c-2.7,4.9-6.1,12.4-6.5,18.2l0.2,0.4c1.3-0.2,10.8-19.3,13-19.3c0.7,0,2.7,0.2,3.1,1.1c0,0.4,0,0.4,0,0.4 c0,0.2,0.7,0.7,0.7,0.7c-2,5.2-4,13.5-4.7,19.1v0.2c0,0.2,0,0.4,0.2,0.4C571.6,83.8,580.4,70.7,582,68.5z M556.8,78.8 c-0.2,0.2-0.2,0.4-0.4,0.4c0,0,0.2,0.2,0.4,0.4c0,0,0.2-0.2,0.2-0.4s0-0.2,0.2-0.7c-0.2,0-0.2,0.4-0.2,0.4l-0.2,0.2V78.8z M557.3,77.9c0-0.2,0.2-0.7,0.2-0.9C557.3,77.5,557.3,77.9,557.3,77.9c-0.2,0.2-0.4,0.2-0.4,0.2v0.2c0-0.2,0.2-0.2,0.4-0.2V77.9 z M557,79.7c-0.2,0,0,0.2-0.2,0.2c0,0.2,0,0.9,0.2,0.9v-0.7V79.7z M567.1,78.8c0,0.2,0.2,0.2,0.2,0.4c0.2-0.2,0.2-0.2,0.2-0.4 H567.1z M568.3,78.8c0,0.2-0.2,0.4-0.4,0.4c0,0.2,0.2,0.2,0.2,0.2C568,79.3,568.3,79,568.3,78.8z M568,81.5l0.2-0.2 c-0.2,0-0.2,0.4-0.2,0.7c0,0.2,0.2,0.2,0.2,0.2L568,81.5z M568.7,82.9v0.4c0.2-0.2,0.2-0.2,0.2-0.2L568.7,82.9z M569.4,80.4 c0,0-0.4,0.4-0.4,1.8v0.4c0-0.2,0-0.4,0-0.7C569.2,81.5,569.4,81.3,569.4,80.4z M569.8,79.3c0-0.2,0-0.2-0.2-0.2 c0,0.2,0,0.9,0,0.9C569.6,79.7,569.8,79.5,569.8,79.3z M569.8,77.7l0.2,0.4c0-0.2,0-0.9,0-0.9C569.8,77.5,569.8,77.5,569.8,77.7 z M570.3,68.3c0,0-0.2,0-0.2,0.2c0.2,0,0.2,0,0.2-0.4V68.3z M572.5,68c-0.9,2.2-2,7-2.2,7.9V77l0.9-4.3L572.5,68z M574.8,80.8 v-0.4c-0.2,0.2-0.2,0.7-0.4,1.1C574.8,81.3,574.8,81.1,574.8,80.8z"></path> <path class="st0" d="M579,86c-0.2,0-0.2-0.7-0.2-0.9s0-0.2,0-0.2c0-0.2,0-0.4,0.2-0.9v-1.3c0-0.2,0.2-0.2,0.2-0.4v-1.1 c1.3-7,3.1-11.9,4.7-19.1c0-0.4,0.2-1.1,0.2-1.6c0-0.2,0.4-0.4,0.4-0.7c0.2-0.2,0.4-0.4,0.9-0.4c0.2,0,1.6,0.4,2.2,0.7 c0.4,0,1.1,0.4,1.1,0.9c0.4,0.4,0.4,0.9,0.4,1.6v0.9c0,1.1,0,1.1-0.2,2.5c2-2.7,6.3-5.6,8.5-5.6c0.7,0,1.1,0.4,1.3,0.9v0.2 c0,0.2,0,0.2-0.2,0.2c-0.4,0.2-0.9,0.2-2.7,1.3c-0.2,0-0.4,0.2-0.4,0.2l-0.7,0.4c-0.2,0-0.4,0.2-0.4,0.4l-1.8,2 c-0.2,0.2-0.7,0.4-0.7,0.7c-0.4,0.4-0.7,0.9-0.9,1.1c0,0,0,0.2-0.2,0.2c0,0.2-0.2,0.4-0.2,0.7c-0.2,0.2-0.4,0.4-0.4,0.7 c-0.2,0.2-0.2,0.2-0.2,0.2s0,0,0,0.2l-0.2,0.2c0,0.2-0.2,0.2-0.2,0.4l-0.4,0.2c0,0.2,0,0.2,0,0.4c-0.2,0.2-0.4,0.7-0.4,0.9 c-0.2,0.4-0.7,0.7-1.1,1.6l-0.2-0.2c0,0.2,0,0.2,0,0.2c0,0.2,0,0.2-0.2,0.2c0,0.2,0,0.2,0,0.4v0.2c0,0.4-0.2,0-0.2,0.4 c-0.2,0-0.2,0.2-0.4,0.4c0-0.2,0-0.2,0-0.2c0-0.2,0-0.2,0-0.2l-0.2-0.2c0,0,0,0,0-0.2s0-0.2,0-0.4c0.2-0.2,0.2-0.2,0.2-0.4 c-0.2,0-0.4,0.9-0.7,0.9c0,0-0.2,0.4-0.2,0.7c-0.2,0-0.2,0.2-0.2,0.4c0,0.2-0.4,0.9-0.4,1.1c0,0,0.2-0.7,0.4-0.9 c0-0.4,0.2-0.7,0.2-0.7c0-0.2,0-0.4,0.2-0.4c0,0,0,0.7-0.2,1.1l0.2-0.2c0,0.2-0.2,0.4-0.4,0.4v0.4c0,0,0,0.2-0.2,0.2 c0,0.4-0.2,0.4-0.2,0.4V77c-0.4,0.2-0.4,0.4-0.4,0.9v0.4c0.2-0.4,0.2-0.7,0.2-0.9c0.2,0,0.2,0,0.2,0.2c0,0,0,0.2-0.2,0.4v0.2 c0,0,0,0.2,0.2,0.2c0,0,0,0.2-0.2,0.2l-0.4,0.9c0,0.2,0,0.4-0.2,0.7v0.4c-0.2,0.2-0.2,0.4-0.2,0.7c0,0,0,1.1-0.2,1.1l-0.2,0.9 c0,0.2-0.2,1.1-0.2,1.1s0.2-0.4,0.2-0.7c0.2,0,0.2-0.9,0.2-1.1l0.2-0.9c0-0.2,0.2-0.7,0.2-0.9s0.2-0.4,0.2-0.7 c0-0.2,0.2-0.4,0.2-0.4c0-0.2,0.2-0.4,0.2-0.7c0-0.2,0-0.4,0.2-0.7c0-0.2,0.2-0.4,0.2-0.4v0.4c0,0.2-0.2,0.7-0.2,0.7 s-0.2,0.4-0.2,0.7v0.2c0,0.2,0,0.2,0,0.2l-0.2-0.2c0,0.2-0.2,0.2-0.2,0.4c0.2,0.2,0.2,0.2,0.2,0.4c0,0,0.2-0.4,0.4-0.9 c0,0.2,0,0.4-0.2,0.7c0,0.2,0,0.4,0,0.4c-0.2,0.2-0.2,0.2-0.2,0.2v0.2l-0.4,1.1v0.7c0.2,0,0.2-0.2,0.2-0.2v-0.2 c0-0.2,0-0.2,0-0.4h0.2c0,0,0,0.2,0,0.4s0,0.2,0,0.2s0,0.2,0.2,0.2c0-0.2,0-0.4,0.2-0.4c0,0.2-0.2,0.4-0.2,0.7v0.7 c-0.2,0-0.4,1.1-0.4,1.1c0-0.2-0.2-0.2-0.2-0.2l-0.2,0.2v-0.4l-0.2,0.2c0,0,0-0.2,0-0.4c0,0,0-0.2,0.2-0.2c0,0,0-0.2,0.2-0.4 c0.2,0,0.2,0,0.2-0.2s-0.7,0.7-0.7,0.9s0,0.4-0.2,0.4c0,0.2,0,0.4-0.2,0.7c0,0-0.2,0.4-0.4,0.4c0,0-0.2,0.2-0.4,0.2h-0.4 c-0.2-0.2-0.4-0.2-0.4-0.4c0,0-0.4,0-0.7-0.2C580.8,86.5,579,86.5,579,86z M582,84.2c0,0-0.2,0-0.2,0.2c-0.2,0-0.2,0.2-0.2,0.2 s0,0.2,0.2,0.2c0,0.2,0,0.4-0.2,0.4l0.2,0.4l0.2-0.4c0-0.2,0-0.4,0.2-0.4c0,0.2-0.2,0-0.2,0.2c0-0.2,0-0.2,0.2-0.4 C582,84.2,582,84.2,582,84.2z M582.9,83.3c-0.2,0-0.4,0-0.4,0.4c0,0,0-0.2,0.2-0.2C582.9,83.5,582.9,83.5,582.9,83.3z M582.9,77 c-0.2,0-0.2,0-0.2,0.2h0.2V77z M584.7,78.8c0,0.2,0,0.4,0,0.9c0-0.2,0.4-1.3,0.4-1.3h-0.2C584.7,78.6,584.7,78.6,584.7,78.8z M590,68.3c0-0.2,0-0.4,0-0.7C590,67.6,589.8,68,590,68.3l-0.4,0.2L590,68.3z M590.7,68l0.4-0.2c0,0-0.2,0-0.2-0.2 C590.9,67.8,590.7,67.8,590.7,68z M591.2,64.4c-0.2,0-0.2,0.2-0.2,0.2s0.4-0.4,0.7-0.4C591.4,64.2,591.2,64.4,591.2,64.4z M594.1,63.1c-0.2,0-0.9,0.7-0.9,1.1C593.4,63.8,593.6,63.6,594.1,63.1z"></path> <path class="st0" d="M639.9,64.9v0.2c0,0,0,0.2-0.2,0.2c-0.2-0.2-0.2-0.2-0.2-0.2c-0.2,0.2-0.7,0.4-0.7,0.4 c-0.2-0.2-0.2-0.2-0.2-0.2c-0.2,0-0.2,0-0.2,0l-0.2,0.2c0,0-0.2,0-0.2-0.2l-0.2,0.2v-0.2h-0.2c0,0.2-0.2,0.2-0.2,0.2l-0.2-0.2 c0,0-0.2,0-0.2,0.2c-0.2,0-0.2,0-0.2,0.2c0,0.2,0,0.2,0.2,0.2l-0.2,0.4h-0.2h-0.4c0,0-0.2,0-0.2-0.2V66h0.4c0,0,0.2,0,0.2-0.2 c0,0,0,0-0.2,0c-0.2,0-0.4,0-0.4,0s-0.2,0-0.7,0h-0.4c-0.4,0-0.7,0-0.7-0.2h-0.4l-0.2,0.2l0.4,0.2c0,0.2-0.2,0.4-0.2,0.4 s-0.2,0-0.2-0.2h-0.2l-0.2,0.2l-0.2-0.2c0,0.2-0.4,0.2-0.4,0.2h-0.2c0,0-0.2,0-0.2,0.2s0.2,0.2,0.2,0.4v0.2c0,0,0,0.2-0.2,0.2 c-0.2,0-0.4,0-0.4-0.2c-0.4,0-0.4,0-0.4,0.2l-0.2-0.2c-0.2,0-0.2,0-0.2,0.2c-0.2,0-0.4,0-0.7,0l0.2,0.2L628,68l-0.7,2.5 c-1.6,5.8-4.3,17.1-4.5,20.9v0.9c-0.2,0-0.4,0-0.4,0c-0.4,0-1.8,0-2,0c-2.5,0-2.9-1.8-3.1-4.3c0-0.9,0.2-2.2,0.2-3.1 c0.7-4,3.8-15.5,4-16.6l-0.4-0.4c-0.4-0.2-0.7-0.7-0.9-1.1c0-0.7,0-0.9,0-1.3c0-0.2,0-0.4,0.2-0.7c0-0.2,0-0.4,0.2-0.7 c0.2-0.4,0.9-0.7,1.6-0.7h0.2c0,0,0.4,0,0.4-0.2c1.3-3.4,3.6-14.4,4.5-18.4c-0.2,0-1.8,0.2-2,0.2c-0.2,0,0.2-0.2-0.4-0.2 s-1.3-0.2-2-0.7l-0.4-0.4c0-0.2,0,0-0.2-0.2l-0.4-1.1c0-0.2,0-0.7-0.2-1.1c0.4-1.6,1.8-1.6,3.1-1.6c6.7,0,11.9-0.9,17.1-0.9 c3.4,0,11.2,0.4,12.8,3.4c0,0-0.4,0-0.7,0c-0.2,0-0.4,0.2-0.7,0.2c0,0.2,0,0.2,0,0.2l-0.4-0.2v0.4c0,0.2,0,0.2-0.2,0.2 c-0.7,0-0.7,0-0.7,0c0,0.4-0.2,0.4-0.7,0.4c-0.2,0-0.2,0-0.2-0.2l-0.2-0.2c0,0.2-0.2,0.2-0.4,0.2c-0.4-0.2-0.4-0.2-0.7-0.2h-0.2 h-0.4l-0.2,0.2c0,0,0-0.2-0.2-0.2c-0.2,0-0.2,0.2-0.2,0.2s0-0.2-0.7-0.2c-0.4,0-0.9,0-0.9,0c-0.2,0-0.2-0.2-0.4-0.2 c-0.2,0-0.2,0-0.4,0l-2.5,0.2c-3.1,0-6.7,0.4-10.1,0.9c0,0,0,0.2,0,0.4c0,2.9-2.9,15.3-3.8,18.2c2.9-0.2,5.2-0.4,8.8-0.4h1.8 c1.8,0,3.6,0.2,5.2,0.9c0.9,0.2,0.7,0.2,1.1,0.9h-0.4c-0.2,0-0.2,0-0.4,0.2c0,0.2,0.2,0.2,0.2,0.2l-0.4,0.2 c-0.2,0,0-0.2-0.4-0.2c0-0.2-0.4-0.2-0.4-0.2c-0.2,0-0.4,0-0.4,0s-0.2,0-0.4,0c0,0,0.2,0.2,0.2,0.4h0.2c0,0,0,0.2-0.2,0.2h-1.1 c-0.2,0-0.2,0.2-0.4,0.2c0,0,0,0-0.7,0v0.7H641c-0.4,0-0.7-0.2-0.7-0.7L639.9,64.9z M628.7,65.1h-0.4c0,0.2,0.2,0.2,0.4,0.2 V65.1z M629.1,66.2V66c0,0-0.2,0-0.2,0.2H629.1z M629.8,66.2h-0.4l0.2,0.2L629.8,66.2z M630.9,66.2c0,0-0.2-0.2-0.4-0.2h-0.2 l0.2,0.2C630.9,66.2,630.9,66.2,630.9,66.2z M631.4,64.9l0.2,0.7h0.4c0,0,0.2,0,0.2-0.2c0-0.2,0-0.4-0.2-0.4L631.4,64.9z M632,66c0.2,0,0.2,0.2,0.4,0.2l0.2,0.2l-0.2,0.2c0,0-0.2,0-0.2-0.2c0,0,0,0-0.2,0h-0.4c0-0.2,0-0.4-0.2-0.4 C631.6,66.2,631.6,66,632,66z M631.8,64.7c0.2,0,0.2,0,0.2-0.2h-0.2V64.7z M632.5,64.2v0.2h-0.2l0.2,0.4l0.4-0.2v-0.2 L632.5,64.2z M639.7,42.4l0.2,0.2c0,0,0.7-0.2,0.4-0.2H639.7c-0.2,0-0.2-0.4-0.4-0.4c-0.2,0-0.7,0.2-0.7,0.2c-0.2,0-0.2,0-0.4,0 h-0.2c-0.2,0-0.4,0-0.2,0c-0.2,0-0.4,0-0.4,0c-0.2,0-0.2-0.2-0.2-0.2c-0.2,0-0.7,0.2-0.9,0.4c-0.2,0-0.2,0-0.4,0h-0.2 c-0.2,0-0.2,0-0.2,0c-0.2,0-0.2,0.2-0.4,0.2l-0.2-0.2c0,0-0.2,0.4-0.4,0.4c0,0-0.4,0-0.7,0c-0.2,0-0.2,0-0.2,0.2v0.2 c0.2,0,0.4,0,0.7-0.2h0.9c0.2,0,0.4,0,0.9,0c0.2,0,0.4,0,0.7-0.2c0.2,0,0.4-0.2,0.4-0.2h0.9c0.2,0,0.4,0,0.4,0.2 c0,0,0.2-0.2,0.4-0.2s0.2,0.2,0.4,0.2c0,0,0.2-0.4,0.4-0.4c0,0,0,0.2,0.2,0.2c0-0.2,0.2-0.2,0.2-0.2H639.7z M633.2,64.4 c0,0.4,0,0.2,0,0.2s0,0,0.2,0L633.2,64.4z M634.5,64.9c0.2,0,0.2-0.2,0.2-0.2h-0.2V64.9z M647.8,42.2c0-0.2-0.7-0.4-0.9-0.4 h-0.2h-0.2l-0.4-0.2c-0.2,0-0.2,0.2-0.4,0.2c-0.2,0-0.2,0-0.4,0c-0.2,0-0.2,0.2-0.2,0.2s-0.2-0.2-0.4-0.2h-2h-0.2 c0,0-0.2,0-0.4,0l-0.4-0.2l-0.4,0.2c0,0.2,0.2,0.4,0.4,0.4c0,0,0,0,0-0.2l0.2-0.2h3.8l0.4-0.2c0.2,0,0.4,0.2,0.4,0.2h0.9 L647.8,42.2z M641.9,63.6c0-0.2-0.2-0.2-0.2-0.2s-0.4,0-0.4,0.2c0.2,0.4,0.2,0.2,0.4,0.4C641.7,63.8,641.7,63.6,641.9,63.6z M648.4,41.1v0.4c0.2,0,0.2,0,0.2-0.2L648.4,41.1z M648.9,41.8h0.2l0.2,0.2c0,0,0.2-0.2,0.2-0.4c0,0,0,0-0.2-0.2h-0.2 C648.9,41.5,648.9,41.5,648.9,41.8z M650.7,42.4c0,0,0-0.2-0.2-0.2c-0.2,0-0.2,0.2-0.2,0.2c0,0.2,0,0.2,0.2,0.2L650.7,42.4z"></path> <path class="st0" d="M673.6,65.3l-0.2,2.5l0.7-0.9v0.4l-0.2,0.4l0.4-0.2l0.2,0.7v0.7l-2.2,3.6c-1.1,2-5.6,9-8.3,11.5 c-0.7,0.7-1.6,1.1-2.5,1.6c-0.2,0-0.4,0-0.7,0s-1.1,0-1.3,0c-0.4,0-0.9-0.4-1.3-0.7c-1.8-0.7-2.7-2.7-2.7-4.7v-0.7 c0-2.7,0.4-4.7,0.9-7c-2,3.1-5.4,9.9-8.8,10.3c-0.2,0-1.6-0.9-1.8-1.1c-1.1-0.7-1.8-0.2-2.5-2.5c0,0,0-0.2-0.2-0.4v-0.7 c0-0.2-0.2-0.2-0.2-0.4c0-0.2,0.2-0.7,0.2-1.1v-0.7c0-0.4,0-0.4,0.2-0.7v-1.1c0.9-5.4,7.6-15.7,13-15.7c0.7,0,2.5,0.9,3.4,1.1 c0.4-0.4,0.9-2.2,2.2-2.2l0.7,0.2h0.2c1.1,0,2.7,1.1,2.7,1.8c0,0.9-0.2,2.5-0.7,3.4c-1.3,2.2-4.3,15.7-4.3,19.5 c0.2,0.7,0.2,0.7,0.2,0.7C663.3,82,671.3,68.5,673.6,65.3z M644.2,72.1c0.2,0,0.4-0.9,0.7-1.1C644.6,71.2,644.4,71.6,644.2,72.1 z M644.8,71v-0.7c-0.2,0,0,0.2-0.2,0.4C644.6,70.7,644.8,71,644.8,71z M657,63.8c-1.1,0.2-3.8,3.1-5.8,6.3 c-1.3,2.2-2.9,5.6-3.6,7.6c-0.2,0.4-0.2,0.7-0.2,1.1l-0.2,0.7c0,0,0.2,0,0.4-0.2c0.2-0.2,0,0,3.4-5.4c2.2-3.4,4.9-8.1,6.7-10.1 C657.6,63.8,657.2,63.8,657,63.8z M659.2,75.5c0.2,0,0.2,0,0.2-0.4c0,0,0-0.2-0.2-0.2V75.5z M659.7,78.1c0,0,0-0.2,0-0.4V77 c0,0.4,0,0.7-0.2,0.9C659.7,78.1,659.7,78.1,659.7,78.1z M660.3,77c-0.2,1.1-0.2,2.2-0.4,3.1c0,0.2,0,0.2,0,0.4v0.4 c0.2-4,2-11.7,3.4-15.5c-0.7,0.7-2.2,7.9-2.5,9.7c0,0.4-0.4,0.9-0.4,1.3L660.3,77L660.3,77z M660.3,75.7l-0.2-0.4 C660.1,75.2,660.1,75.2,660.3,75.7c-0.2,0-0.2,0.2-0.2,0.2s0,0.2,0,0.4s0,0.2,0,0.2C660.1,76.1,660.1,76.1,660.3,75.7z M660.1,71.9l0.2-0.2c0.2-0.2,0.2-0.4,0.2-0.7l0.2-0.2v-0.2C660.3,71,660.3,71.2,660.1,71.9z M660.3,75c0,0-0.2,0.2,0,0.2 c0,0,0.2-0.2,0.2-0.4C660.6,75,660.6,75,660.3,75z M660.8,68.3v-0.7l-0.4,1.6c0,0,0,0,0.2,0C660.8,68.7,660.8,68.3,660.8,68.3z"></path> <path class="st0" d="M670,50.8c0-0.4,0.2-0.9,0.7-0.9c0,0,0.2,0,0.2,0.2c0.4,0.2,0.7,0.2,0.9,0.2h0.4c0.2,0,0.4,0,0.9,0 c1.3-0.2,2.9-0.4,4.7-0.7c1.1-2.7,2-5.2,2.9-7.6l0.4-1.1c0.2-0.2,0.2-0.2,0.4-0.2c0.2,0,1.1,0.4,1.3,0.4c1.1,0,1.3,1.1,1.3,2.2 c0,0.2,0.4,0.7,0.4,0.9l0,0c-0.2,1.1-0.4,2.5-0.7,3.4l-0.4,1.6c0.4,0,1.1,0,1.8,0c1.8,0,3.4,0.2,5.4,0.4c0.7,0.2,1.8,0.4,2,1.3 l0.2,0.2c0,0.2,0,0.7,0,0.9c0,0,0.2,0.4,0.4,0.4c-0.2,0-0.7-0.2-0.9-0.2c-0.4,0-0.9,0-1.1,0c-0.4,0-0.7,0-1.3-0.2h-1.1 c-0.4,0-1.1,0-1.8,0c-1.3,0.2-2.9,0.2-4.3,0.4c-0.9,2.9-2,5.8-2.9,8.5v-0.2l2-5.6c-0.2,0.2-2,4.5-3.6,9.7c0,0.2-0.2,0.4-0.2,1.1 l-0.2,0.7v0.2l-0.2,0.2c-0.2,0.2-0.2,0.4-0.2,0.7V68l-0.7,2.7c-0.7,2.7-1.8,7.6-1.8,10.1v0.9l0.2-2.7c0.2-2.2,0.9-4.7,1.3-7.2 v-0.2v-0.2L677,71c0.7-2.9,1.3-5.4,1.8-6.3c0-0.4,0.2-1.3,0.7-1.8l0.2-0.2V62c0.2,0,0.4-0.2,0.4-0.2c-2.5,7-4.7,14.4-4.7,20.9 c0,0.4,0,0.7,0.4,0.7c0,0,0.2,0,0.4,0c3.4-1.8,10.6-11.5,14.1-16.4l0.9-1.1c0.2-0.2,0.2-0.4,0.4-0.7c0,0,0.2-0.2,0.4-0.2 l-0.2,0.7c0,0,0.4,0,0.7-0.4v0.2c0,0.2-0.2,0.7-0.4,1.1l0.7-0.9v0.2c-0.2,0.2-0.2,0.7-0.4,0.9l0.7-0.7v0.9c0,0.2,0,0.4-0.4,0.4 V68c0,0.4-0.9,1.6-1.1,2l-4,5.8c-0.7,1.1-4.7,6.1-5.8,6.7c-0.4,0.7-0.7,0.9-1.3,1.3c0,0.2-0.2,0.2-0.2,0.2 c-0.4,0.4-1.1,0.9-1.8,1.1c-0.4,0.2-0.7,0.4-1.1,0.7c-0.2,0-0.7,0.4-1.1,0.4c-0.2,0-1.1-0.2-1.3-0.4c-0.2,0-0.9-0.2-0.9-0.2 c-0.2,0-1.8-0.9-2-1.1l-0.2-0.2c-0.2-0.2-0.2-0.4-0.4-0.4l-0.2-0.7v-0.2c0-0.4-0.2-0.7-0.2-1.1v-0.4c0-0.2-0.2-0.4-0.2-0.7v-0.2 v-0.2c0,0,0-0.4,0.2-0.4v-0.4c0-0.2,0-0.2,0-0.4c-0.2-0.2-0.2-0.2-0.2-0.2c0-0.4,0.2-0.7,0.2-0.9v-1.1v-0.2c0,0,0,0,0-0.2 c0-0.4,0.2-1.3,0.4-1.8c0-0.2,0-0.2,0.2-0.7c0-0.4,0-0.7,0.2-0.9c0.2-0.2,0.2-0.7,0.2-1.1v-0.7c0-0.4,0.4-0.9,0.4-1.3 c1.1-5.4,3.4-10.8,5.4-16.2h-0.4c-0.9,0.2-1.8,0.2-2.7,0.2C672.2,54.1,670,53.2,670,50.8z M678.8,84.4c0,0-2.2,1.6-3.1,1.8 C676.5,86.2,678.8,84.9,678.8,84.4z M686.4,75.9c0,0-0.4,0.4-0.4,0.7c0,0.2-0.2,0.4-0.7,0.4c0,0-0.2,0-0.2,0.2l-0.2,0.7 l-0.2,0.2c0,0,0,0.2-0.2,0.2l-0.2,0.2c0,0.2-0.2,0.4-0.4,0.4l-0.2,0.4c-0.2,0.2-0.4,0.4-0.7,0.9l0.7-0.7l0.7-0.7 c0-0.2,0.4-0.4,0.7-0.7v-0.2c0-0.2,0.2-0.4,0.2-0.4c0.2,0,0.4-0.2,0.7-0.4s0.2-0.4,0.4-0.4l0.7-0.9l0.7-1.1 c-0.2,0-0.2,0.2-0.2,0.2c0,0.2,0,0.2-0.4,0.4C686.8,75.5,686.6,75.7,686.4,75.9L686.4,75.9z M688.4,72.1 c0.4-0.2,0.9-0.9,0.9-0.9c0-0.2,0.2-0.4,0-0.4L688.4,72.1z"></path> <path class="st0" d="M722.3,68l0.4-0.4v0.7C723,68,723,68,723.2,68l-0.4,0.7h0.7c-0.4,0.4-0.4,0.9-0.7,1.3l0.7-0.9 c0,0.4-0.2,0.9-0.2,0.9c-1.1,2-2,3.1-3.6,5.2c0,0.2-0.2,0.2-0.2,0.2c0,0.2-0.2,0.2-0.2,0.2s0,0.2-0.2,0.2l-0.4,0.2 c0,0.2-0.2,0.4-0.2,0.4s0,0,0-0.2l-0.7,0.9h0.2c0.2-0.2,0.2-0.2,0.4-0.4c0,0.9-0.4,0.4-0.7,1.3c0,0.2-0.4,0.4-0.4,0.7 c0,0-0.7,0-0.7,0.4c-0.4,0.2-0.4,0.2-0.4,0.4c0,0,0.7-0.2,0.7-0.4v0.2c-0.4,0.7-0.9,1.3-1.6,2.2c-0.4,0.4-0.7,1.1-1.1,1.6 c0.2-0.2-0.7,0.9-1.1,1.3c-0.4,0.4-0.9,0.9-1.3,1.3c-1.1,1.1-2.5,2.2-3.4,3.1c-0.4,0.4-1.1,0.4-1.8,0.4h-0.4 c-0.9,0-2-0.7-2.9-1.3c-0.7-0.2-1.1-1.1-1.3-1.8l-0.2-0.2c0-0.2,0-0.7,0-1.1c0-0.4,0-0.9,0-1.3v-0.9c0.4-5.4,3.8-11,4.7-16.4 c0-0.4,0-0.9,0-1.3c-3.1,1.6-10.1,13-12.8,17.5c0,0.2-0.2,0.4-0.4,0.4c-0.4,0.4-0.9,0.4-1.3,0.4c-0.7,0-3.4-1.8-4-2 c-0.7-0.2-0.9-1.3-0.9-1.8c0-1.1,0.2-2,0.7-3.1c0.4-1.8,2.9-8.5,3.4-10.1c3.1-9.4,6.5-18.6,8.1-25.6c0-0.2,0.2-0.2,0.7-0.2 c0.2,0,0.2,0,0.4,0c0.9,0.2,2.2,1.3,2.7,1.8c0.2,0.2,0.4,1.6,0.4,2.5c-0.4,6.7-3.6,15.7-9,29.6c2.2-4.3,6.7-9.9,9.7-11.9 c0,0,0.2-0.2,0.4-0.2c0.7-0.4,1.1-0.4,2-0.4s3.8,1.1,4.5,1.8c0,0.2,0.4,0.4,0.4,0.7c0,0,0.4,1.6,0.4,1.8c0,2.2,0,4-0.7,6.1 c0,0-0.4,1.6-0.7,2l-2.7,7.9c-0.2,0.9-0.9,3.4-0.9,4v0.2v0.2c0.9-0.2,5.4-5.8,9.4-11.2c2.2-2.9,4.5-6.3,6.7-9.7V68H722.3z M694,68.5c-0.2,0.2-0.2,0.4-0.2,0.4v0.4l0.2-0.2V68.5z M695.6,61.3l0.2-0.2c-0.2,0-0.4,0.2-0.4,0.4 C695.6,61.3,695.6,61.3,695.6,61.3z M700.5,66.9c0,0,1.1-1.1,1.3-1.3c-0.2,0-0.4,0.2-0.7,0.4L700.5,66.9z M705.7,81.3 c0,0,0.2,0,0.4-0.2c0,0,0.2-0.4,0.2-0.7c-0.2,0-0.2,0.2-0.2,0.4C705.9,81.1,705.5,81.3,705.7,81.3z M706.6,77.5 c-0.2,0.2-0.2,0.4-0.2,0.4l-0.2,0.2v0.2c0,0,0-0.2,0-0.4C706.6,77.9,706.6,77.7,706.6,77.5z M706.4,79c0,0,0,0,0.2,0l-0.2,0.4 c0.2-0.2,0.4-0.2,0.4-0.4C706.4,79,706.4,79,706.4,79z M706.8,71.9l-0.2,0.2l0.2,0.4c0,0,0-0.2,0-0.4V71.9z M707.3,76.1 c-0.2,0-0.2,0.2-0.2,0.2l-0.2,0.4l0.2-0.2c0.2,0,0.2-0.2,0.2-0.2V76.1z M707.7,69.8v0.2c0,0,0.2-0.2,0.2-0.4v-0.2 c-0.2,0-0.4,0.2-0.7,0.2c0,0,0,0.2,0,0.4c0.2-0.2,0.2-0.4,0.2-0.4C707.5,69.6,707.7,69.8,707.7,69.8z M707.7,72.3 c0,0-0.2,0-0.2,0.4C707.5,72.8,707.7,72.8,707.7,72.3z M707.7,77.9c0,0,0-0.2,0-0.4h-0.2L707.7,77.9z M707.7,72.1 c0.2-0.2,0.2-0.2,0.2-0.4l0.2-0.2v-0.2c0,0.2-0.2,0.4-0.2,0.4L707.7,72.1z M708.2,74.8l-0.2,0.2c0,0,0,0,0.2,0V74.8z M709.5,86 l0.2-0.2l0.2-0.2c0,0,0-0.2,0.2-0.2c-0.2,0.2-0.2,0.2-0.2,0.2C710,85.3,709.5,85.8,709.5,86z M710,86.5l-0.2,0.4 c0.2,0,0.4-0.4,0.4-0.4C710.2,86.2,710,86.2,710,86.5z M710.6,69.4c0-0.2,0-0.4,0-0.4s0-0.2-0.2-0.2l-0.2,1.6c0,0,0,0.2,0,0.4 c0,0,0.2-0.2,0.2-0.4L710.6,69.4z M711.5,84v-0.7c0,0.2-0.2,0.2-0.4,0.4c0,0.2,0,0.2-0.2,0.4l-0.2,0.2c0.2,0,0.4-0.2,0.4-0.2 C711.5,84.4,711.5,84.2,711.5,84z"></path> <path class="st0" d="M725.7,84.2c2.7,0,8.5-7.4,10.3-9.9c2.2-2.9,4.5-6.3,6.1-8.3v0.9c0-0.2,0.2-0.2,0.4-0.4c0,0,0,0.4-0.2,0.9 l0.2-0.4c0,0,0.2,0.4,0.2,0.7c0.2,0.2,0,0.4,0.4,0.4c0.2,0-1.1,2.2-1.3,2.5l-1.8,2.7c-2.2,3.4-9.4,13.7-14.8,13.7 c-4,0-7-4.5-7-8.8c0-0.4,0-1.1,0-1.6c0.4-6.5,4.9-16.6,11.2-18.2c1.6,0.2,6.3,1.8,6.3,4v0.4c-0.2,5.4-4.9,8.5-8.8,8.5h-0.9 l-0.4,0.2c-0.4,1.1-1.8,5.8-1.8,9v0.9C724.3,83.1,724.8,84.2,725.7,84.2z M722.5,80.4v0.7h0.4C723,80.8,723,80.6,722.5,80.4z M723.2,79.7c0.2,0.4,0.2,0.7,0.2,0.7c0.2,0,0.2-0.7,0.2-1.1C723.2,79.5,723.2,79.7,723.2,79.7z M723.9,78.8 c0.2-2.2,1.1-5.2,1.8-7.2c-0.2,0.2-0.4,0.9-0.4,1.1l-0.4,1.1l0.2-0.2c0,0,0,0.4-0.2,0.4c0,0-0.2,0.7-0.2,0.9c0,0,0,0.2-0.2,0.2 c-0.2,0-0.2,0-0.2,0.2l0.2-1.1c0.2-0.7,0.9-2.7,0.9-2.7l-0.2,0.2c-0.4,1.6-0.9,3.1-1.1,4.7l0.2-1.3c0,0,0.2,0.2,0.2,0.4 c0,0.2,0,0.4,0,0.4S723.9,77.9,723.9,78.8z M727.3,67.6l-0.4-0.2l-0.2,0.2l0.2,0.4C726.8,68,726.8,67.6,727.3,67.6z M727.7,67.8 l-0.4,0.7c2.2-0.4,4.9-3.6,4.9-5.8c0-0.2-0.2-0.2-0.2-0.2C730.4,63.8,729.3,64.9,727.7,67.8z M727.7,66.9c0-0.2-0.2-0.2-0.2-0.2 v0.4C727.7,67.1,727.7,66.9,727.7,66.9z M739.2,73.9C739.2,73.9,738.9,73.9,739.2,73.9c-0.2,0.2,0.4,0,0.4-0.2 c-0.2,0-0.2,0-0.2,0C739.2,73.9,739.2,73.9,739.2,73.9z"></path> <path class="st0" d="M737.6,86c-0.2,0-0.2-0.7-0.2-0.9s0-0.2,0-0.2c0-0.2,0-0.4,0.2-0.9v-1.3c0-0.2,0.2-0.2,0.2-0.4v-1.1 c1.3-7,3.1-11.9,4.7-19.1c0-0.4,0.2-1.1,0.2-1.6c0-0.2,0.4-0.4,0.4-0.7c0.2-0.2,0.4-0.4,0.9-0.4c0.2,0,1.6,0.4,2.2,0.7 c0.4,0,1.1,0.4,1.1,0.9c0.4,0.4,0.4,0.9,0.4,1.6v0.9c0,1.1,0,1.1-0.2,2.5c2-2.7,6.3-5.6,8.5-5.6c0.7,0,1.1,0.4,1.3,0.9v0.2 c0,0.2,0,0.2-0.2,0.2c-0.4,0.2-0.9,0.2-2.7,1.3c-0.2,0-0.4,0.2-0.4,0.2l-0.7,0.4c-0.2,0-0.4,0.2-0.4,0.4l-1.8,2 c-0.2,0.2-0.7,0.4-0.7,0.7c-0.4,0.4-0.7,0.9-0.9,1.1c0,0,0,0.2-0.2,0.2c0,0.2-0.2,0.4-0.2,0.7c-0.2,0.2-0.4,0.4-0.4,0.7 c-0.2,0.2-0.2,0.2-0.2,0.2s0,0,0,0.2l-0.2,0.2c0,0.2-0.2,0.2-0.2,0.4l-0.4,0.2c0,0.2,0,0.2,0,0.4c-0.2,0.2-0.4,0.7-0.4,0.9 c-0.2,0.4-0.7,0.7-1.1,1.6l-0.2-0.2c0,0.2,0,0.2,0,0.2c0,0.2,0,0.2-0.2,0.2c0,0.2,0,0.2,0,0.4v0.2c0,0.4-0.2,0-0.2,0.4 c-0.2,0-0.2,0.2-0.4,0.4c0-0.2,0-0.2,0-0.2c0-0.2,0-0.2,0-0.2l-0.2-0.2c0,0,0,0,0-0.2s0-0.2,0-0.4c0.2-0.2,0.2-0.2,0.2-0.4 c-0.2,0-0.4,0.9-0.7,0.9c0,0-0.2,0.4-0.2,0.7c-0.2,0-0.2,0.2-0.2,0.4c0,0.2-0.4,0.9-0.4,1.1c0,0,0.2-0.7,0.4-0.9 c0-0.4,0.2-0.7,0.2-0.7c0-0.2,0-0.4,0.2-0.4c0,0,0,0.7-0.2,1.1l1.6-0.2c0,0.2-0.2,0.4-0.4,0.4v0.4c0,0,0,0.2-0.2,0.2 c0,0.4-0.2,0.4-0.2,0.4V77c-0.4,0.2-0.4,0.4-0.4,0.9v0.4c0.2-0.4,0.2-0.7,0.2-0.9c0.2,0,0.2,0,0.2,0.2c0,0,0,0.2-0.2,0.4v0.2 c0,0,0,0.2,0.2,0.2c0,0,0,0.2-0.2,0.2l-0.4,0.9c0,0.2,0,0.4-0.2,0.7v0.4c-0.2,0.2-0.2,0.4-0.2,0.7c0,0,0,1.1-0.2,1.1l-0.2,0.9 c0,0.2-0.2,1.1-0.2,1.1s0.2-0.4,0.2-0.7c0.2,0,0.2-0.9,0.2-1.1l0.2-0.9c0-0.2,0.2-0.7,0.2-0.9s0.2-0.4,0.2-0.7 c0-0.2,0.2-0.4,0.2-0.4c0-0.2,0.2-0.4,0.2-0.7c0-0.2,0-0.4,0.2-0.7c0-0.2,0.2-0.4,0.2-0.4v0.4c0,0.2-0.2,0.7-0.2,0.7 s-0.2,0.4-0.2,0.7v0.2c0,0.2,0,0.2,0,0.2l-0.2-0.2c0,0.2-0.2,0.2-0.2,0.4c0.2,0.2,0.2,0.2,0.2,0.4c0,0,0.2-0.4,0.4-0.9 c0,0.2,0,0.4-0.2,0.7c0,0.2,0,0.4,0,0.4c-0.2,0.2-0.2,0.2-0.2,0.2v0.2l-0.4,1.1v0.7c0.2,0,0.2-0.2,0.2-0.2v-0.2 c0-0.2,0-0.2,0-0.4h0.2c0,0,0,0.2,0,0.4s0,0.2,0,0.2s0,0.2,0.2,0.2c0-0.2,0-0.4,0.2-0.4c0,0.2-0.2,0.4-0.2,0.7v0.7 c-0.2,0-0.4,1.1-0.4,1.1c0-0.2-0.2-0.2-0.2-0.2l-0.2,0.2v-0.4l-0.2,0.2c0,0,0-0.2,0-0.4c0,0,0-0.2,0.2-0.2c0,0,0-0.2,0.2-0.4 c0.2,0,0.2,0,0.2-0.2c0-0.2-0.7,0.7-0.7,0.9c0,0.2,0,0.4-0.2,0.4c0,0.2,0,0.4-0.2,0.7c0,0-0.2,0.4-0.4,0.4c0,0-0.2,0.2-0.4,0.2 h-0.4c-0.2-0.2-0.4-0.2-0.4-0.4c0,0-0.4,0-0.7-0.2C739.4,86.5,737.6,86.5,737.6,86z M740.5,84.2c0,0-0.2,0-0.2,0.2 c-0.2,0-0.2,0.2-0.2,0.2s0,0.2,0.2,0.2c0,0.2,0,0.4-0.2,0.4l0.2,0.4l0.2-0.4c0-0.2,0-0.4,0.2-0.4c0,0.2-0.2,0-0.2,0.2 c0-0.2,0-0.2,0.2-0.4C740.5,84.2,740.5,84.2,740.5,84.2z M741.4,83.3c-0.2,0-0.4,0-0.4,0.4c0,0,0-0.2,0.2-0.2 C741.4,83.5,741.4,83.5,741.4,83.3z M741.4,77c-0.2,0-0.2,0-0.2,0.2h0.2V77z M743.2,78.8c0,0.2,0,0.4,0,0.9 c0-0.2,0.4-1.3,0.4-1.3h-0.2C743.2,78.6,743.2,78.6,743.2,78.8z M748.6,68.3c0-0.2,0-0.4,0-0.7C748.6,67.6,748.4,68,748.6,68.3 l-0.4,0.2L748.6,68.3z M749.3,68l0.4-0.2c0,0-0.2,0-0.2-0.2C749.5,67.8,749.3,67.8,749.3,68z M749.7,64.4 c-0.2,0-0.2,0.2-0.2,0.2s0.4-0.4,0.7-0.4C749.9,64.2,749.7,64.4,749.7,64.4z M752.6,63.1c-0.2,0-0.9,0.7-0.9,1.1 C752,63.8,752.2,63.6,752.6,63.1z"></path> </g> </g> </g> </g> </svg> 