<?xml version="1.0" encoding="UTF-8"?> <svg xmlns="http://www.w3.org/2000/svg" width="241.34" height="24.562" viewBox="0 0 241.34 24.562"><defs><style> .cls-1 { fill: #fff; fill-rule: evenodd; } </style></defs><path id="keep_watching" data-name="keep watching" class="cls-1" d="M1397.24,350.328h-5.76l-11.93,10.319,1.98-10.319h-5.19l-4.66,24h5.19l1.67-8.559,2.16-1.88,7.39,10.439h6.07l-9.59-13.239Zm16.18,4.333h-13.23l-3.82,19.665h13.23l0.61-3.015h-8.97l1.11-5.867h7.29l0.61-2.982h-7.32l0.9-4.786h8.98Zm17.34,0h-13.23l-3.82,19.665h13.23l0.61-3.015h-8.97l1.11-5.867h7.29l0.61-2.982h-7.32l0.9-4.786h8.98Zm17.81,6.49c0.65-3.278-1.15-6.49-5.91-6.49h-7.79l-3.82,19.665h4.25l1.45-7.472h4.14C1445.58,366.854,1447.92,364.4,1448.57,361.151Zm-4.11-.3c-0.36,1.8-1.62,3.244-4.25,3.244h-2.92l1.33-6.686h2.88C1444.03,357.414,1444.82,359.053,1444.46,360.856Zm41.35-6.195h-4.07l-6.53,12.356c-0.21.427-.72,1.7-0.75,1.836,0-.066-0.04-1.377-0.11-1.836l-1.55-12.356h-3.07l-6.38,12.356-0.83,1.836a17.237,17.237,0,0,0-.03-1.836l-1.74-12.356h-4.14l3.21,19.665h3.13l6.35-11.766c0.25-.393.65-1.475,0.68-1.508,0,0.066.08,1.082,0.15,1.508l1.77,11.766h3.13Zm14.75,19.665-4.73-19.665h-3.35l-12.37,19.665h4.11l3.03-4.85h8.11l1.05,4.85h4.15Zm-5.74-7.571h-5.98l4.4-7.079Zm25.28-12.094h-17.74l-0.58,3.015h6.74l-3.24,16.65h4.25l3.25-16.65h6.74Zm18.06,1.573a10.875,10.875,0,0,0-6.71-2c-5.98,0-11.32,3.573-12.29,9.931s3.42,10.587,9.26,10.587a13.289,13.289,0,0,0,7.14-2l0.54-3.6a11,11,0,0,1-6.85,2.425c-3.75,0-6.38-2.982-5.69-7.341a7.662,7.662,0,0,1,7.86-6.818,8.681,8.681,0,0,1,6.2,2.327Zm22.28-1.573h-4.26l-1.47,7.67h-9.27l1.48-7.67h-4.26l-3.82,19.665h4.26l1.69-8.751h9.23l-1.66,8.751h4.26Zm9.01,0h-4.25l-3.83,19.665h4.26Zm22.1,0h-3.82l-2.52,13.078-8.08-13.078h-2.92l-3.82,19.665h3.82l2.52-13.077,8.08,13.077h2.92Zm21.49,1.475a11.3,11.3,0,0,0-6.82-1.967c-6.59,0-11.82,3.639-12.8,10s3.43,10.718,9.7,10.718a18.317,18.317,0,0,0,7.75-1.934l1.7-8.686h-7.61l-0.54,2.917h3.57l-0.76,3.933a7.624,7.624,0,0,1-3.49.787c-4.11,0-6.75-3.146-6.03-7.669a8.026,8.026,0,0,1,8.33-6.982,8.964,8.964,0,0,1,6.42,2.36Z" transform="translate(-1371.69 -350.313)"></path></svg> 