<?xml version="1.0" encoding="UTF-8"?> <svg xmlns="http://www.w3.org/2000/svg" viewBox="0 0 163.362 61"><defs><style>.a{fill:gray;font-size:8px;font-family:FuturaPT-Book, Futura PT;letter-spacing:0.639em;}.b{fill:#8f8f8f;}</style></defs><g transform="translate(-1510.765 -1327)"><text class="a" transform="translate(1534 1386)"><tspan x="0" y="0">INTERNATIONAL</tspan></text><g transform="translate(1470.885 1089.76)"><g transform="translate(65.524 243.556)"><path class="b" d="M309.29,309.5q-4.022.115-8.041.257,0-1.246,0-2.492a4.971,4.971,0,0,0-.3-2.218,1.083,1.083,0,0,0-1.011-.459,1.314,1.314,0,0,0-1.168.668,3.885,3.885,0,0,0-.4,1.964,5.461,5.461,0,0,0,.452,2.525,6.129,6.129,0,0,0,2.432,1.957c3.825,2.145,6.236,3.877,7.228,5.27s1.487,3.678,1.483,6.87a12.489,12.489,0,0,1-.839,5.2,7.543,7.543,0,0,1-3.217,3.074,14.376,14.376,0,0,1-5.538,1.73,11.547,11.547,0,0,1-5.907-.626,5.457,5.457,0,0,1-3.2-3.078,17.91,17.91,0,0,1-.756-5.947v-2.279q4.009-.361,8.025-.668,0,2.063,0,4.125a5.331,5.331,0,0,0,.333,2.417,1.174,1.174,0,0,0,1.194.427,1.565,1.565,0,0,0,1.275-.806,4.146,4.146,0,0,0,.421-2.062q0-2.951-.79-3.8a23.774,23.774,0,0,0-4.025-2.766,32.705,32.705,0,0,1-4.253-2.9,6.885,6.885,0,0,1-1.727-2.673,12.543,12.543,0,0,1-.684-4.517,13.274,13.274,0,0,1,.974-5.86,6.628,6.628,0,0,1,3.15-2.89,12.152,12.152,0,0,1,5.255-1.025A13.808,13.808,0,0,1,305.393,300a5.982,5.982,0,0,1,3.136,2.692,14.015,14.015,0,0,1,.762,5.513Q309.293,308.853,309.29,309.5Z" transform="translate(-290.28 -298.919)"></path><path class="b" d="M527.463,313.147q-4.349.06-8.7.161,0-2.742.007-5.485a9.275,9.275,0,0,0-.275-2.984,1.21,1.21,0,0,0-1.232-.582,1.316,1.316,0,0,0-1.37.739,10.532,10.532,0,0,0-.295,3.144q-.011,7.381-.021,14.763a9.644,9.644,0,0,0,.286,3.011,1.188,1.188,0,0,0,1.306.641,1.309,1.309,0,0,0,1.277-.767,11.058,11.058,0,0,0,.306-3.326q0-1.989.005-3.98,4.349-.138,8.7-.219c0,.406,0,.811,0,1.217a22.737,22.737,0,0,1-.74,6.9,7.616,7.616,0,0,1-3.254,3.674,12.512,12.512,0,0,1-6.2,1.839,13.171,13.171,0,0,1-6.3-.912,5.88,5.88,0,0,1-3.279-3.455,23.006,23.006,0,0,1-.794-7.07q.008-4.727.014-9.455a40.912,40.912,0,0,1,.256-5.25,7.254,7.254,0,0,1,1.481-3.379,8.143,8.143,0,0,1,3.412-2.544,12.759,12.759,0,0,1,5.011-.92A12.937,12.937,0,0,1,523.4,300.3a6.809,6.809,0,0,1,3.281,3.45,19.409,19.409,0,0,1,.78,6.432Q527.465,311.666,527.463,313.147Z" transform="translate(-484.705 -298.91)"></path><path class="b" d="M960.487,305.153q2.513,16.07,5.026,32.529-4.41-.379-8.826-.661-.24-2.891-.479-5.776-1.591-.081-3.183-.153-.24,2.847-.479,5.688-4.477-.238-8.956-.375,2.215-15.566,4.42-31.266Q954.249,305.143,960.487,305.153Zm-4.5,20.445q-.671-5.418-1.371-13.408c-.876,6.09-1.43,10.509-1.659,13.293Q954.468,325.537,955.984,325.6Z" transform="translate(-876.682 -304.502)"></path><path class="b" d="M1191,305.414v34.82q-3.8-.53-7.6-.986-2.261-7.965-4.529-15.675.009,7.581.018,15.161-3.6-.39-7.214-.715-.024-16.324-.05-32.648l7.281.014q2.446,7.514,4.885,15.275-.006-7.632-.012-15.264Q1187.386,305.4,1191,305.414Z" transform="translate(-1081.359 -304.708)"></path></g><path class="b" d="M121.561,623.8c31.175,0,59.7,2.338,81.681,6.207-17.173-7.237-47.337-12.037-81.681-12.037s-64.506,4.8-81.681,12.037C61.867,626.137,90.388,623.8,121.561,623.8Z" transform="translate(0 -341.738)"></path><g transform="translate(111.122 237.24)"><path class="b" d="M848.923,307.386a8.493,8.493,0,0,0-1.541-3.973,7.992,7.992,0,0,0-3.422-2.739,11.25,11.25,0,0,0-3.122-.815v4.293h6.1V306.4h-6.1v21.213h0l-.818,6.759-.195,1.607a11.4,11.4,0,0,0,4.262-.95,8.032,8.032,0,0,0,3.36-2.771,8.539,8.539,0,0,0,1.48-3.984q.241-2.18.241-7.42V314.9Q849.17,309.533,848.923,307.386Z" transform="translate(-829.146 -293.447)"></path><path class="b" d="M743.932,327.518h0v-.024h0V306.281h-6.1v-2.246h6.1V299.73a10.847,10.847,0,0,0-3.344.883,8.04,8.04,0,0,0-3.361,2.77,8.54,8.54,0,0,0-1.481,3.984q-.237,2.18-.236,7.42v5.948q0,5.371.247,7.519a8.431,8.431,0,0,0,1.542,3.972,7.938,7.938,0,0,0,3.423,2.737,11.751,11.751,0,0,0,4.223.9l-.2-1.61Z" transform="translate(-735.51 -293.33)"></path><path class="b" d="M811.406,243.653V241.9a2.541,2.541,0,0,0,1.1-2.065,2.735,2.735,0,0,0-5.463,0,2.541,2.541,0,0,0,1.095,2.063v1.746a14.739,14.739,0,0,1,1.59-.084A14.169,14.169,0,0,1,811.406,243.653Z" transform="translate(-799.714 -237.24)"></path><path class="b" d="M827.62,652.523l.625,5.15.625-5.153q-.33.014-.671.014C828,652.534,827.81,652.53,827.62,652.523Z" transform="translate(-818.187 -609.99)"></path></g></g></g></svg> 